<?xml version="1.0" encoding="utf-8"?>
<!-- Generator: Adobe Illustrator 21.0.0, SVG Export Plug-In . SVG Version: 6.00 Build 0)  -->
<svg version="1.1" id="图层_1" xmlns="http://www.w3.org/2000/svg" xmlns:xlink="http://www.w3.org/1999/xlink" x="0px" y="0px"
	 viewBox="0 0 1920 1160" style="enable-background:new 0 0 1920 1160;" xml:space="preserve">
<style type="text/css">
	.st0{fill:#FFFFFF;}
	.st1{opacity:0.5;fill:#F2F2F2;stroke:#E6E6E6;stroke-miterlimit:10;}
	.st2{fill:none;stroke:#999999;stroke-miterlimit:10;}
	.st3{fill:#00A1E9;}
	.st4{font-family:'NotoSansHans-Regular';}
	.st5{font-size:20.7043px;}
	.st6{fill:#0AC3D5;}
	.st7{fill:#B3B3B3;}
	.st8{fill:#29ABE2;}
	.st9{font-size:18.979px;}
	.st10{opacity:0.5;fill:#CCCCCC;}
	.st11{opacity:0.5;fill:#B3B3B3;}
</style>
<rect class="st0" width="1920" height="1160"/>
<rect x="566" y="394.8" class="st1" width="173.4" height="433.1"/>
<rect x="811" y="394.8" class="st1" width="173.4" height="697.9"/>
<rect x="1056" y="394.8" class="st1" width="173.4" height="374.4"/>
<line class="st2" x1="1208.3" y1="430.1" x2="1404.1" y2="430.1"/>
<line class="st2" x1="1208.3" y1="485.4" x2="1251.4" y2="485.4"/>
<line class="st2" x1="1208.3" y1="531.9" x2="1251.4" y2="531.9"/>
<line class="st2" x1="1208.3" y1="576.8" x2="1251.4" y2="576.8"/>
<line class="st2" x1="1208.3" y1="678.6" x2="1251.4" y2="678.6"/>
<line class="st2" x1="1208.3" y1="735.5" x2="1251.4" y2="735.5"/>
<line class="st2" x1="953.4" y1="129.5" x2="953.4" y2="200.2"/>
<line class="st2" x1="414.2" y1="315.8" x2="414.2" y2="415.1"/>
<line class="st2" x1="603.1" y1="212.3" x2="603.1" y2="277.9"/>
<line class="st2" x1="654" y1="315.8" x2="654" y2="394.3"/>
<line class="st2" x1="899" y1="315.8" x2="899" y2="394.3"/>
<line class="st2" x1="1142.3" y1="315.8" x2="1142.3" y2="394.3"/>
<line class="st2" x1="775.6" y1="100.2" x2="775.6" y2="316.7"/>
<line class="st2" x1="901.6" y1="142.5" x2="815.3" y2="142.5"/>
<line class="st2" x1="717.9" y1="277" x2="602.7" y2="277.1"/>
<line class="st2" x1="953.8" y1="199.4" x2="653.6" y2="199.5"/>
<line class="st2" x1="1142.7" y1="314.9" x2="413.8" y2="315.3"/>
<rect x="708.8" y="66.5" class="st3" width="134.6" height="35.4"/>
<text transform="matrix(1 0 0 1 755.3857 91.5918)" class="st0 st4 st5">进入</text>
<rect x="708.8" y="125.2" class="st3" width="134.6" height="35.4"/>
<text transform="matrix(1 0 0 1 744.4526 149.9048)" class="st0 st4 st5">引导页</text>
<rect x="884.8" y="125.2" class="st6" width="134.6" height="35.4"/>
<text transform="matrix(1 0 0 1 933.4004 149.9048)" class="st0 st4 st5">注册</text>
<rect x="532.8" y="182.1" class="st6" width="134.6" height="35.4"/>
<text transform="matrix(1 0 0 1 560.7217 206.8418)" class="st0 st4 st5">稍后登录</text>
<rect x="708.8" y="182.1" class="st3" width="134.6" height="35.4"/>
<text transform="matrix(1 0 0 1 754.8242 206.8418)" class="st0 st4 st5">登录</text>
<rect x="708.8" y="259.8" class="st3" width="134.6" height="35.4"/>
<text transform="matrix(1 0 0 1 754.8242 284.4829)" class="st0 st4 st5">菜单</text>
<rect x="586.3" y="337.4" class="st6" width="134.6" height="35.4"/>
<text transform="matrix(1 0 0 1 632.3232 362.124)" class="st0 st4 st5">新闻</text>
<rect x="346.5" y="337.4" class="st6" width="134.6" height="35.4"/>
<text transform="matrix(1 0 0 1 392.498 362.124)" class="st0 st4 st5">常用</text>
<rect x="831.3" y="337.4" class="st6" width="134.6" height="35.4"/>
<text transform="matrix(1 0 0 1 877.3242 362.124)" class="st0 st4 st5">功能</text>
<rect x="1074.6" y="337.4" class="st6" width="134.6" height="35.4"/>
<text transform="matrix(1 0 0 1 1120.6016 362.124)" class="st0 st4 st5">设置</text>
<rect x="586.3" y="411.6" class="st7" width="134.6" height="35.4"/>
<text transform="matrix(1 0 0 1 632.3232 436.3154)" class="st0 st4 st5">推荐</text>
<rect x="346.5" y="411.6" class="st7" width="134.6" height="35.4"/>
<text transform="matrix(1 0 0 1 361.4419 436.3154)" class="st0 st4 st5">自定义设置</text>
<rect x="831.3" y="411.6" class="st7" width="134.6" height="35.4"/>
<text transform="matrix(1 0 0 1 877.9971 436.3154)" class="st0 st4 st5">GPA</text>
<rect x="1074.6" y="411.6" class="st6" width="134.6" height="35.4"/>
<text transform="matrix(1 0 0 1 1099.8965 436.3154)" class="st0 st4 st5">用户信息</text>
<rect x="1248.8" y="411.6" class="st6" width="134.6" height="35.4"/>
<text transform="matrix(1 0 0 1 1274.1582 436.3154)" class="st0 st4 st5">个人设置</text>
<rect x="1248.8" y="466.8" class="st7" width="134.6" height="35.4"/>
<text transform="matrix(1 0 0 1 1274.1582 491.5269)" class="st0 st4 st5">消息列表</text>
<rect x="1248.8" y="513.4" class="st7" width="134.6" height="35.4"/>
<text transform="matrix(1 0 0 1 1274.1582 538.1118)" class="st0 st4 st5">收藏列表</text>
<rect x="1248.8" y="560" class="st7" width="134.6" height="35.4"/>
<text transform="matrix(1 0 0 1 1274.1582 584.6968)" class="st0 st4 st5">记录列表</text>
<rect x="1248.8" y="660.1" class="st7" width="134.6" height="35.4"/>
<text transform="matrix(1 0 0 1 1274.1582 684.7671)" class="st0 st4 st5">绑定页面</text>
<rect x="586.3" y="458.2" class="st7" width="134.6" height="35.4"/>
<text transform="matrix(1 0 0 1 632.3232 482.8999)" class="st0 st4 st5">微信</text>
<rect x="831.3" y="458.2" class="st7" width="134.6" height="35.4"/>
<text transform="matrix(1 0 0 1 866.9717 482.8999)" class="st0 st4 st5">课程表</text>
<rect x="1074.6" y="466.8" class="st6" width="134.6" height="35.4"/>
<text transform="matrix(1 0 0 1 1099.8965 491.5269)" class="st0 st4 st5">我的消息</text>
<rect x="586.3" y="504.8" class="st7" width="134.6" height="35.4"/>
<text transform="matrix(1 0 0 1 632.3232 529.4849)" class="st0 st4 st5">微博</text>
<rect x="831.3" y="504.8" class="st7" width="134.6" height="35.4"/>
<text transform="matrix(1 0 0 1 866.9717 529.4849)" class="st0 st4 st5">自行车</text>
<rect x="1074.6" y="513.4" class="st6" width="134.6" height="35.4"/>
<text transform="matrix(1 0 0 1 1099.8965 538.1118)" class="st0 st4 st5">我的收藏</text>
<rect x="586.3" y="551.4" class="st7" width="134.6" height="35.4"/>
<text transform="matrix(1 0 0 1 632.3232 576.0688)" class="st0 st4 st5">公告</text>
<rect x="831.3" y="551.4" class="st7" width="134.6" height="35.4"/>
<text transform="matrix(1 0 0 1 877.3242 576.0688)" class="st0 st4 st5">党建</text>
<rect x="1074.6" y="560" class="st6" width="134.6" height="35.4"/>
<text transform="matrix(1 0 0 1 1099.8965 584.6968)" class="st0 st4 st5">浏览记录</text>
<rect x="586.3" y="596.2" class="st7" width="134.6" height="35.4"/>
<text transform="matrix(1 0 0 1 611.6191 620.9282)" class="st0 st4 st5">天大要闻</text>
<rect x="831.3" y="596.2" class="st7" width="134.6" height="35.4"/>
<text transform="matrix(1 0 0 1 866.9717 620.9282)" class="st0 st4 st5">自习室</text>
<rect x="1074.6" y="615.2" class="st6" width="134.6" height="35.4"/>
<text transform="matrix(1 0 0 1 1099.8965 639.9077)" class="st0 st4 st5">夜间模式</text>
<rect x="586.3" y="641.1" class="st7" width="134.6" height="35.4"/>
<text transform="matrix(1 0 0 1 611.6191 665.7876)" class="st0 st4 st5">视点观察</text>
<rect x="586.3" y="685.9" class="st7" width="134.6" height="35.4"/>
<text transform="matrix(1 0 0 1 611.6191 710.6475)" class="st0 st4 st5">社团风采</text>
<rect x="586.3" y="730.8" class="st7" width="134.6" height="35.4"/>
<text transform="matrix(1 0 0 1 611.6191 755.5078)" class="st0 st4 st5">院系动态</text>
<rect x="586.3" y="775.7" class="st7" width="134.6" height="35.4"/>
<rect x="1249.3" y="707.9" class="st1" width="173.4" height="389.1"/>
<rect x="1269.5" y="724.8" class="st7" width="134.6" height="35.4"/>
<rect x="1269.5" y="771.3" class="st7" width="134.6" height="35.4"/>
<rect x="1269.5" y="817.9" class="st7" width="134.6" height="35.4"/>
<rect x="1269.5" y="864.5" class="st7" width="134.6" height="35.4"/>
<rect x="1269.5" y="909.4" class="st7" width="134.6" height="35.4"/>
<rect x="1269.5" y="954.2" class="st7" width="134.6" height="35.4"/>
<rect x="1269.5" y="999.1" class="st7" width="134.6" height="35.4"/>
<rect x="1269.5" y="1043.9" class="st8" width="134.6" height="35.4"/>
<text transform="matrix(1 0 0 1 1315.5674 749.4688)" class="st0 st4 st5">邮箱</text>
<text transform="matrix(1 0 0 1 1305.2148 796.0527)" class="st0 st4 st5">手机号</text>
<text transform="matrix(1 0 0 1 1294.8633 842.6367)" class="st0 st4 st5">修改密码</text>
<text transform="matrix(1 0 0 1 1294.8633 889.2227)" class="st0 st4 st5">清除缓存</text>
<text transform="matrix(1 0 0 1 1294.8633 934.082)" class="st0 st4 st5">意见反馈</text>
<text transform="matrix(1 0 0 1 1294.8633 978.9414)" class="st0 st4 st5">检查更新</text>
<text transform="matrix(1 0 0 1 1315.5674 1023.8018)" class="st0 st4 st5">关于</text>
<rect x="1440.3" y="999.9" class="st7" width="134.6" height="35.4"/>
<text transform="matrix(1 0 0 1 1472.4551 1024.6641)" class="st0 st4 st9">APP简介</text>
<text transform="matrix(1 0 0 1 1294.8633 1068.6602)" class="st0 st4 st5">退出登录</text>
<rect x="1403.7" y="236" class="st1" width="173.4" height="387.3"/>
<line class="st2" x1="1404.1" y1="1016.8" x2="1440.3" y2="1016.8"/>
<rect x="1440.3" y="908.5" class="st7" width="134.6" height="35.4"/>
<text transform="matrix(1 0 0 1 1479.4785 933.2188)" class="st0 st4 st9">反馈页</text>
<line class="st2" x1="1404.1" y1="925.3" x2="1440.3" y2="925.3"/>
<rect x="1423.9" y="252.9" class="st7" width="134.6" height="35.4"/>
<rect x="1423.9" y="299.5" class="st7" width="134.6" height="35.4"/>
<rect x="1423.9" y="346" class="st7" width="134.6" height="35.4"/>
<rect x="1423.9" y="392.6" class="st7" width="134.6" height="35.4"/>
<rect x="1423.9" y="437.5" class="st7" width="134.6" height="35.4"/>
<rect x="1423.9" y="482.3" class="st7" width="134.6" height="35.4"/>
<rect x="1423.9" y="527.2" class="st7" width="134.6" height="35.4"/>
<rect x="1423.9" y="572.1" class="st7" width="134.6" height="35.4"/>
<text transform="matrix(1 0 0 1 1470.8447 278.0381)" class="st0 st4 st5">头像</text>
<text transform="matrix(1 0 0 1 1470.8447 324.6226)" class="st0 st4 st5">账号</text>
<text transform="matrix(1 0 0 1 1470.8447 371.208)" class="st0 st4 st5">简介</text>
<text transform="matrix(1 0 0 1 1470.8447 417.7925)" class="st0 st4 st5">姓名</text>
<text transform="matrix(1 0 0 1 1470.8447 462.6523)" class="st0 st4 st5">学号</text>
<text transform="matrix(1 0 0 1 1470.8447 507.5112)" class="st0 st4 st5">身份</text>
<text transform="matrix(1 0 0 1 1470.8447 552.3706)" class="st0 st4 st5">学院</text>
<text transform="matrix(1 0 0 1 1470.8447 597.231)" class="st0 st4 st5">专业</text>
<text transform="matrix(1 0 0 1 611.6191 800.3662)" class="st0 st4 st5">就业资讯</text>
<rect x="831.3" y="641.1" class="st7" width="134.6" height="35.4"/>
<rect x="831.3" y="687.7" class="st7" width="134.6" height="35.4"/>
<text transform="matrix(1 0 0 1 856.6196 712.373)" class="st0 st4 st5">失物招领</text>
<rect x="831.3" y="734.2" class="st7" width="134.6" height="35.4"/>
<rect x="831.3" y="780.8" class="st7" width="134.6" height="35.4"/>
<rect x="831.3" y="827.4" class="st7" width="134.6" height="35.4"/>
<rect x="831.3" y="1013.8" class="st10" width="134.6" height="61.3"/>
<text transform="matrix(1 0 0 1 866.9717 757.6875)" class="st0 st4 st5">图书馆</text>
<text transform="matrix(1 0 0 1 877.3242 804.2715)" class="st0 st4 st5">约吧</text>
<text transform="matrix(1 0 0 1 856.6196 850.8564)" class="st0 st4 st5">公交签到</text>
<text transform="matrix(1 0 0 1 866.9717 1038.9219)"><tspan x="0" y="0" class="st0 st4 st5">功能需</tspan><tspan x="0" y="24.8" class="st0 st4 st5">求反馈</tspan></text>
<text transform="matrix(1 0 0 1 856.6196 665.7876)" class="st0 st4 st5">老乡查询</text>
<rect x="327.9" y="460.3" class="st1" width="173.4" height="485.7"/>
<rect x="348.2" y="477.2" class="st7" width="134.6" height="35.4"/>
<text transform="matrix(1 0 0 1 394.896 501.8784)" class="st0 st4 st5">GPA</text>
<rect x="348.2" y="523.7" class="st7" width="134.6" height="35.4"/>
<text transform="matrix(1 0 0 1 383.8706 548.4634)" class="st0 st4 st5">课程表</text>
<rect x="348.2" y="570.3" class="st7" width="134.6" height="35.4"/>
<text transform="matrix(1 0 0 1 383.8706 595.0483)" class="st0 st4 st5">自行车</text>
<rect x="348.2" y="616.9" class="st7" width="134.6" height="35.4"/>
<text transform="matrix(1 0 0 1 394.2227 641.6333)" class="st0 st4 st5">党建</text>
<rect x="348.2" y="661.8" class="st7" width="134.6" height="35.4"/>
<text transform="matrix(1 0 0 1 383.8706 686.4927)" class="st0 st4 st5">自习室</text>
<rect x="348.2" y="706.6" class="st7" width="134.6" height="35.4"/>
<rect x="348.2" y="753.2" class="st7" width="134.6" height="35.4"/>
<text transform="matrix(1 0 0 1 373.5186 777.9365)" class="st0 st4 st5">失物招领</text>
<rect x="348.2" y="799.8" class="st7" width="134.6" height="35.4"/>
<rect x="348.2" y="846.4" class="st7" width="134.6" height="35.4"/>
<rect x="348.2" y="893" class="st7" width="134.6" height="35.4"/>
<text transform="matrix(1 0 0 1 383.8706 823.251)" class="st0 st4 st5">图书馆</text>
<text transform="matrix(1 0 0 1 394.2227 869.8359)" class="st0 st4 st5">约吧</text>
<text transform="matrix(1 0 0 1 373.5186 916.4219)" class="st0 st4 st5">公交签到</text>
<text transform="matrix(1 0 0 1 373.5186 731.3525)" class="st0 st4 st5">老乡查询</text>
<rect x="1074.6" y="660.1" class="st6" width="134.6" height="35.4"/>
<text transform="matrix(1 0 0 1 1089.5449 684.7671)" class="st0 st4 st5">办公网绑定</text>
<rect x="1074.6" y="717" class="st6" width="134.6" height="35.4"/>
<text transform="matrix(1 0 0 1 1120.6016 741.7051)" class="st0 st4 st5">设置</text>
<rect x="831.3" y="874" class="st11" width="134.6" height="35.4"/>
<rect x="831.3" y="920.6" class="st7" width="134.6" height="35.4"/>
<rect x="831.3" y="967.2" class="st7" width="134.6" height="35.4"/>
<text transform="matrix(1 0 0 1 873.1729 897.4424)" class="st0 st4 st5">more</text>
<text transform="matrix(1 0 0 1 846.2676 944.0254)" class="st0 st4 st5">天外天图集</text>
<text transform="matrix(1 0 0 1 856.6196 990.6113)" class="st0 st4 st5">方寸流年</text>
</svg>
