<?xml version="1.0" encoding="utf-8"?>
<!-- Generator: Adobe Illustrator 21.0.0, SVG Export Plug-In . SVG Version: 6.00 Build 0)  -->
<svg version="1.1" id="图层_1" xmlns="http://www.w3.org/2000/svg" xmlns:xlink="http://www.w3.org/1999/xlink" x="0px" y="0px"
	 viewBox="0 0 1920 1313" style="enable-background:new 0 0 1920 1313;" xml:space="preserve">
<style type="text/css">
	.st0{display:none;fill:#0277BD;}
	.st1{fill:#CCCCCC;stroke:#CCCCCC;stroke-width:2;stroke-miterlimit:10;}
	.st2{fill:none;stroke:#CCCCCC;stroke-width:2;stroke-miterlimit:10;}
	.st3{display:none;fill:none;stroke:#FFFFFF;stroke-width:2;stroke-miterlimit:10;}
	.st4{fill:none;stroke:#FFFFFF;stroke-width:2;stroke-miterlimit:10;}
	.st5{fill:none;}
	.st6{fill:#FFFFFF;}
	.st7{font-family:'NotoSansHans-Regular';}
	.st8{font-size:49.3148px;}
	.st9{font-family:'HiraginoSansGB-W6-GBpc-EUC-H';}
	.st10{letter-spacing:-3;}
	.st11{opacity:0.6;fill:#B3B3B3;}
	.st12{opacity:0.6;}
	.st13{fill:#B3B3B3;}
	.st14{opacity:0.6;fill:#0277BD;}
	.st15{fill:#0277BD;}
	.st16{display:none;fill:#B3B3B3;}
</style>
<g id="title_8_">
	<rect x="68.1" y="-210.5" class="st0" width="6.3" height="27.9"/>
</g>
<g>
	<rect x="11.4" y="8.9" class="st1" width="1897.2" height="117.5"/>
	<rect x="11.4" y="8.9" class="st1" width="377.1" height="1296.7"/>
	<line class="st2" x1="9.9" y1="596.3" x2="1910" y2="596.3"/>
	<line class="st2" x1="9.9" y1="478.8" x2="1910" y2="478.8"/>
	<line class="st2" x1="9.9" y1="361.3" x2="1910" y2="361.3"/>
	<line class="st2" x1="9.9" y1="243.8" x2="1910" y2="243.8"/>
	<line class="st3" x1="-178" y1="-243.8" x2="1899.3" y2="-243.8"/>
	<line class="st4" x1="9.9" y1="126.3" x2="389.9" y2="126.3"/>
	<line class="st4" x1="9.9" y1="242.4" x2="389.9" y2="242.4"/>
	<line class="st4" x1="9.9" y1="361.3" x2="389.9" y2="361.3"/>
	<line class="st4" x1="9.9" y1="477.4" x2="389.9" y2="477.4"/>
	<line class="st4" x1="9.9" y1="596.3" x2="389.9" y2="596.3"/>
	<line class="st2" x1="9.9" y1="1182.3" x2="1910" y2="1182.3"/>
	<line class="st2" x1="9.9" y1="1307" x2="1910" y2="1307"/>
	<line class="st2" x1="9.9" y1="1064.8" x2="1910" y2="1064.8"/>
	<line class="st2" x1="9.9" y1="947.3" x2="1910" y2="947.3"/>
	<line class="st2" x1="9.9" y1="829.8" x2="1910" y2="829.8"/>
	<line class="st2" x1="9.9" y1="712.3" x2="1910" y2="712.3"/>
	<line class="st2" x1="1530" y1="7.4" x2="1530" y2="1304.1"/>
	<line class="st2" x1="1910" y1="7.4" x2="1910" y2="1304.1"/>
	<line class="st2" x1="1150" y1="7.4" x2="1150" y2="1304.1"/>
	<line class="st2" x1="770" y1="7.4" x2="770" y2="1304.1"/>
	<line class="st4" x1="770" y1="7.4" x2="770" y2="127.8"/>
	<line class="st4" x1="1150" y1="7.4" x2="1150" y2="127.8"/>
	<line class="st4" x1="1530" y1="7.4" x2="1530" y2="127.8"/>
	<line class="st4" x1="389.9" y1="7.4" x2="389.9" y2="1304.1"/>
	<line class="st4" x1="9.9" y1="712.3" x2="389.9" y2="712.3"/>
	<line class="st4" x1="9.9" y1="828.4" x2="389.9" y2="828.4"/>
	<line class="st4" x1="9.9" y1="947.3" x2="389.9" y2="947.3"/>
	<line class="st4" x1="9.9" y1="1063.3" x2="389.9" y2="1063.3"/>
	<path class="st4" d="M9.9,1182.3h380H9.9z"/>
	<rect x="11.4" y="8.9" class="st5" width="1897.2" height="1296.7"/>
</g>
<text transform="matrix(1 0 0 1 118.4756 88.6455)"><tspan x="0" y="0" class="st6 st7 st8">子功能</tspan><tspan x="-24.7" y="117.4" class="st6 st7 st8">新闻资讯</tspan><tspan x="26.3" y="234.7" class="st6 st7 st8">GPA</tspan><tspan x="0" y="352.1" class="st6 st7 st8">课程表</tspan><tspan x="0" y="469.5" class="st6 st7 st8">自行车</tspan><tspan x="24.7" y="586.8" class="st6 st7 st8">党建</tspan><tspan x="0" y="704.2" class="st6 st7 st8">自习室</tspan><tspan x="-24.7" y="821.6" class="st6 st7 st8">老乡查询</tspan><tspan x="0" y="939" class="st6 st7 st8">图书馆</tspan><tspan x="24.7" y="1056.3" class="st6 st7 st8">约吧</tspan><tspan x="-24.7" y="1173.7" class="st6 st7 st8">公交签到</tspan></text>
<text transform="matrix(1 0 0 1 482.5332 90.0957)" class="st6 st9 st8 st10">使用人数</text>
<g>
	<g>
		<polygon class="st0" points="535.3,-149.8 520.4,-157.6 505.6,-149.7 508.4,-166.3 496.4,-178 513,-180.4 520.3,-195.5 
			527.8,-180.5 544.4,-178.1 532.4,-166.4 		"/>
		<polygon class="st11" points="526.3,212.3 512.7,205.2 499.1,212.4 501.7,197.2 490.7,186.5 505.8,184.3 512.6,170.5 519.4,184.2 
			534.6,186.4 523.7,197.2 		"/>
		<polygon class="st11" points="594.3,212.3 580.7,205.2 567.2,212.4 569.7,197.2 558.7,186.5 573.9,184.3 580.6,170.5 587.5,184.2 
			602.7,186.4 591.7,197.2 		"/>
	</g>
	<g>
		<polygon class="st0" points="954,-149.8 939.1,-157.6 924.2,-149.7 927,-166.3 915,-178 931.6,-180.4 939,-195.5 946.4,-180.5 
			963.1,-178.1 951.1,-166.4 		"/>
		<polygon class="st0" points="805.2,-149.8 790.3,-157.6 775.4,-149.7 778.2,-166.3 766.2,-178 782.8,-180.4 790.2,-195.5 
			797.6,-180.5 814.3,-178.1 802.3,-166.4 		"/>
		<polygon class="st11" points="977.3,212.3 963.7,205.2 950.1,212.4 952.6,197.2 941.6,186.5 956.8,184.3 963.6,170.5 970.4,184.2 
			985.6,186.4 974.6,197.2 		"/>
	</g>
	<g class="st12">
		<polygon class="st13" points="1419.5,212.3 1405.9,205.2 1392.3,212.4 1394.9,197.2 1383.9,186.5 1399.1,184.3 1405.8,170.5 
			1412.7,184.2 1427.9,186.4 1416.9,197.2 		"/>
		<polygon class="st13" points="1283.4,212.3 1269.8,205.2 1256.2,212.4 1258.8,197.2 1247.8,186.5 1263,184.3 1269.7,170.5 
			1276.6,184.2 1291.8,186.4 1280.8,197.2 		"/>
		<polygon class="st13" points="1351.5,212.3 1337.9,205.2 1324.3,212.4 1326.9,197.2 1315.8,186.5 1331,184.3 1337.8,170.5 
			1344.6,184.2 1359.8,186.4 1348.8,197.2 		"/>
	</g>
	<g>
		<polygon class="st0" points="1781.7,-149.8 1766.8,-157.6 1752,-149.7 1754.8,-166.3 1742.7,-178 1759.3,-180.4 1766.7,-195.5 
			1774.2,-180.5 1790.8,-178.1 1778.8,-166.4 		"/>
		<polygon class="st14" points="1666.3,212.3 1652.7,205.2 1639.2,212.4 1641.7,197.2 1630.7,186.5 1645.9,184.3 1652.6,170.5 
			1659.5,184.2 1674.7,186.4 1663.7,197.2 		"/>
		<polygon class="st14" points="1734.4,212.3 1720.8,205.2 1707.2,212.4 1709.8,197.2 1698.7,186.5 1713.9,184.3 1720.7,170.5 
			1727.5,184.2 1742.7,186.4 1731.8,197.2 		"/>
	</g>
</g>
<g>
	<g class="st12">
		<polygon class="st13" points="662.4,325.4 648.8,318.3 635.2,325.5 637.8,310.4 626.8,299.7 641.9,297.4 648.7,283.6 655.5,297.4 
			670.7,299.5 659.8,310.3 		"/>
		<polygon class="st13" points="526.3,325.4 512.7,318.3 499.1,325.5 501.7,310.4 490.7,299.7 505.8,297.4 512.6,283.6 519.4,297.4 
			534.6,299.5 523.7,310.3 		"/>
		<polygon class="st13" points="594.3,325.4 580.7,318.3 567.2,325.5 569.7,310.4 558.7,299.7 573.9,297.4 580.6,283.6 587.5,297.4 
			602.7,299.5 591.7,310.3 		"/>
	</g>
	<g>
		<polygon class="st0" points="954,-26.1 939.1,-33.9 924.2,-26.1 927,-42.6 915,-54.3 931.6,-56.7 939,-71.8 946.4,-56.8 
			963.1,-54.4 951.1,-42.7 		"/>
		<polygon class="st11" points="909.2,325.4 895.6,318.3 882,325.5 884.6,310.4 873.6,299.7 888.8,297.4 895.5,283.6 902.3,297.4 
			917.5,299.5 906.6,310.3 		"/>
		<polygon class="st11" points="977.3,325.4 963.7,318.3 950.1,325.5 952.6,310.4 941.6,299.7 956.8,297.4 963.6,283.6 970.4,297.4 
			985.6,299.5 974.6,310.3 		"/>
	</g>
	<g class="st12">
		<polygon class="st13" points="1419.5,325.4 1405.9,318.3 1392.3,325.5 1394.9,310.4 1383.9,299.7 1399.1,297.4 1405.8,283.6 
			1412.7,297.4 1427.9,299.5 1416.9,310.3 		"/>
		<polygon class="st13" points="1283.4,325.4 1269.8,318.3 1256.2,325.5 1258.8,310.4 1247.8,299.7 1263,297.4 1269.7,283.6 
			1276.6,297.4 1291.8,299.5 1280.8,310.3 		"/>
		<polygon class="st13" points="1351.5,325.4 1337.9,318.3 1324.3,325.5 1326.9,310.4 1315.8,299.7 1331,297.4 1337.8,283.6 
			1344.6,297.4 1359.8,299.5 1348.8,310.3 		"/>
	</g>
	<g class="st12">
		<polygon class="st15" points="1802.4,325.4 1788.8,318.3 1775.3,325.5 1777.8,310.4 1766.8,299.7 1782,297.4 1788.7,283.6 
			1795.6,297.4 1810.8,299.5 1799.8,310.3 		"/>
		<polygon class="st15" points="1666.3,325.4 1652.7,318.3 1639.2,325.5 1641.7,310.4 1630.7,299.7 1645.9,297.4 1652.6,283.6 
			1659.5,297.4 1674.7,299.5 1663.7,310.3 		"/>
		<polygon class="st15" points="1734.4,325.4 1720.8,318.3 1707.2,325.5 1709.8,310.4 1698.7,299.7 1713.9,297.4 1720.7,283.6 
			1727.5,297.4 1742.7,299.5 1731.8,310.3 		"/>
	</g>
</g>
<g>
	<g class="st12">
		<polygon class="st13" points="662.4,441.4 648.8,434.3 635.2,441.5 637.8,426.4 626.8,415.7 641.9,413.5 648.7,399.7 655.5,413.4 
			670.7,415.6 659.8,426.3 		"/>
		<polygon class="st13" points="526.3,441.4 512.7,434.3 499.1,441.5 501.7,426.4 490.7,415.7 505.8,413.5 512.6,399.7 519.4,413.4 
			534.6,415.6 523.7,426.3 		"/>
		<polygon class="st13" points="594.3,441.4 580.7,434.3 567.2,441.5 569.7,426.4 558.7,415.7 573.9,413.5 580.6,399.7 587.5,413.4 
			602.7,415.6 591.7,426.3 		"/>
	</g>
	<g>
		<polygon class="st16" points="954,100.7 939.1,93 924.2,100.8 927,84.3 915,72.6 931.6,70.1 939,55 946.4,70.1 963.1,72.4 
			951.1,84.2 		"/>
		<polygon class="st11" points="909.2,441.4 895.6,434.3 882,441.5 884.6,426.4 873.6,415.7 888.8,413.5 895.5,399.7 902.3,413.4 
			917.5,415.6 906.6,426.3 		"/>
		<polygon class="st11" points="977.3,441.4 963.7,434.3 950.1,441.5 952.6,426.4 941.6,415.7 956.8,413.5 963.6,399.7 970.4,413.4 
			985.6,415.6 974.6,426.3 		"/>
	</g>
	<g class="st12">
		<polygon class="st13" points="1419.5,441.4 1405.9,434.3 1392.3,441.5 1394.9,426.4 1383.9,415.7 1399.1,413.5 1405.8,399.7 
			1412.7,413.4 1427.9,415.6 1416.9,426.3 		"/>
		<polygon class="st13" points="1283.4,441.4 1269.8,434.3 1256.2,441.5 1258.8,426.4 1247.8,415.7 1263,413.5 1269.7,399.7 
			1276.6,413.4 1291.8,415.6 1280.8,426.3 		"/>
		<polygon class="st13" points="1351.5,441.4 1337.9,434.3 1324.3,441.5 1326.9,426.4 1315.8,415.7 1331,413.5 1337.8,399.7 
			1344.6,413.4 1359.8,415.6 1348.8,426.3 		"/>
	</g>
	<g class="st12">
		<polygon class="st15" points="1802.4,441.4 1788.8,434.3 1775.3,441.5 1777.8,426.4 1766.8,415.7 1782,413.5 1788.7,399.7 
			1795.6,413.4 1810.8,415.6 1799.8,426.3 		"/>
		<polygon class="st15" points="1666.3,441.4 1652.7,434.3 1639.2,441.5 1641.7,426.4 1630.7,415.7 1645.9,413.5 1652.6,399.7 
			1659.5,413.4 1674.7,415.6 1663.7,426.3 		"/>
		<polygon class="st15" points="1734.4,441.4 1720.8,434.3 1707.2,441.5 1709.8,426.4 1698.7,415.7 1713.9,413.5 1720.7,399.7 
			1727.5,413.4 1742.7,415.6 1731.8,426.3 		"/>
	</g>
</g>
<g>
	<g>
		<polygon class="st0" points="535.3,230.8 520.4,223 505.6,230.8 508.4,214.3 496.4,202.6 513,200.1 520.3,185.1 527.8,200.1 
			544.4,202.5 532.4,214.2 		"/>
		<polygon class="st11" points="526.3,560.4 512.7,553.3 499.1,560.5 501.7,545.3 490.7,534.6 505.8,532.4 512.6,518.6 519.4,532.4 
			534.6,534.5 523.7,545.3 		"/>
		<polygon class="st11" points="594.3,560.4 580.7,553.3 567.2,560.5 569.7,545.3 558.7,534.6 573.9,532.4 580.6,518.6 587.5,532.4 
			602.7,534.5 591.7,545.3 		"/>
	</g>
	<g>
		<polygon class="st0" points="954,230.8 939.1,223 924.2,230.8 927,214.3 915,202.6 931.6,200.1 939,185.1 946.4,200.1 
			963.1,202.5 951.1,214.2 		"/>
		<polygon class="st11" points="909.2,560.4 895.6,553.3 882,560.5 884.6,545.3 873.6,534.6 888.8,532.4 895.5,518.6 902.3,532.4 
			917.5,534.5 906.6,545.3 		"/>
		<polygon class="st11" points="977.3,560.4 963.7,553.3 950.1,560.5 952.6,545.3 941.6,534.6 956.8,532.4 963.6,518.6 970.4,532.4 
			985.6,534.5 974.6,545.3 		"/>
	</g>
	<g>
		<polygon class="st16" points="1363.1,230.8 1348.2,223 1333.4,230.8 1336.2,214.3 1324.1,202.6 1340.7,200.1 1348.1,185.1 
			1355.6,200.1 1372.2,202.5 1360.2,214.2 		"/>
		<polygon class="st11" points="1283.4,560.4 1269.8,553.3 1256.2,560.5 1258.8,545.3 1247.8,534.6 1263,532.4 1269.7,518.6 
			1276.6,532.4 1291.8,534.5 1280.8,545.3 		"/>
		<polygon class="st11" points="1351.5,560.4 1337.9,553.3 1324.3,560.5 1326.9,545.3 1315.8,534.6 1331,532.4 1337.8,518.6 
			1344.6,532.4 1359.8,534.5 1348.8,545.3 		"/>
	</g>
	<g>
		<polygon class="st0" points="1781.7,230.8 1766.8,223 1752,230.8 1754.8,214.3 1742.7,202.6 1759.3,200.1 1766.7,185.1 
			1774.2,200.1 1790.8,202.5 1778.8,214.2 		"/>
		<polygon class="st14" points="1666.3,560.4 1652.7,553.3 1639.2,560.5 1641.7,545.3 1630.7,534.6 1645.9,532.4 1652.6,518.6 
			1659.5,532.4 1674.7,534.5 1663.7,545.3 		"/>
		<polygon class="st14" points="1734.4,560.4 1720.8,553.3 1707.2,560.5 1709.8,545.3 1698.7,534.6 1713.9,532.4 1720.7,518.6 
			1727.5,532.4 1742.7,534.5 1731.8,545.3 		"/>
	</g>
</g>
<g>
	<g class="st12">
		<polygon class="st13" points="662.4,676.4 648.8,669.3 635.2,676.5 637.8,661.4 626.8,650.7 641.9,648.4 648.7,634.6 655.5,648.4 
			670.7,650.6 659.8,661.3 		"/>
		<polygon class="st13" points="526.3,676.4 512.7,669.3 499.1,676.5 501.7,661.4 490.7,650.7 505.8,648.4 512.6,634.6 519.4,648.4 
			534.6,650.6 523.7,661.3 		"/>
		<polygon class="st13" points="594.3,676.4 580.7,669.3 567.2,676.5 569.7,661.4 558.7,650.7 573.9,648.4 580.6,634.6 587.5,648.4 
			602.7,650.6 591.7,661.3 		"/>
	</g>
	<g>
		<polygon class="st0" points="954,357.6 939.1,349.8 924.2,357.7 927,341.1 915,329.5 931.6,327 939,311.9 946.4,327 963.1,329.3 
			951.1,341.1 		"/>
		<polygon class="st11" points="909.2,676.4 895.6,669.3 882,676.5 884.6,661.4 873.6,650.7 888.8,648.4 895.5,634.6 902.3,648.4 
			917.5,650.6 906.6,661.3 		"/>
		<polygon class="st11" points="977.3,676.4 963.7,669.3 950.1,676.5 952.6,661.4 941.6,650.7 956.8,648.4 963.6,634.6 970.4,648.4 
			985.6,650.6 974.6,661.3 		"/>
	</g>
	<g class="st12">
		<polygon class="st13" points="1419.5,676.4 1405.9,669.3 1392.3,676.5 1394.9,661.4 1383.9,650.7 1399.1,648.4 1405.8,634.6 
			1412.7,648.4 1427.9,650.6 1416.9,661.3 		"/>
		<polygon class="st13" points="1283.4,676.4 1269.8,669.3 1256.2,676.5 1258.8,661.4 1247.8,650.7 1263,648.4 1269.7,634.6 
			1276.6,648.4 1291.8,650.6 1280.8,661.3 		"/>
		<polygon class="st13" points="1351.5,676.4 1337.9,669.3 1324.3,676.5 1326.9,661.4 1315.8,650.7 1331,648.4 1337.8,634.6 
			1344.6,648.4 1359.8,650.6 1348.8,661.3 		"/>
	</g>
	<g class="st12">
		<polygon class="st15" points="1802.4,676.4 1788.8,669.3 1775.3,676.5 1777.8,661.4 1766.8,650.7 1782,648.4 1788.7,634.6 
			1795.6,648.4 1810.8,650.6 1799.8,661.3 		"/>
		<polygon class="st15" points="1666.3,676.4 1652.7,669.3 1639.2,676.5 1641.7,661.4 1630.7,650.7 1645.9,648.4 1652.6,634.6 
			1659.5,648.4 1674.7,650.6 1663.7,661.3 		"/>
		<polygon class="st15" points="1734.4,676.4 1720.8,669.3 1707.2,676.5 1709.8,661.4 1698.7,650.7 1713.9,648.4 1720.7,634.6 
			1727.5,648.4 1742.7,650.6 1731.8,661.3 		"/>
	</g>
</g>
<g>
	<g>
		<polygon class="st0" points="535.3,487.6 520.4,479.9 505.6,487.7 508.4,471.2 496.4,459.5 513,457 520.3,442 527.8,457 
			544.4,459.4 532.4,471.1 		"/>
		<polygon class="st11" points="526.3,795.4 512.7,788.2 499.1,795.4 501.7,780.3 490.7,769.6 505.8,767.4 512.6,753.6 519.4,767.3 
			534.6,769.5 523.7,780.2 		"/>
		<polygon class="st11" points="594.3,795.4 580.7,788.2 567.2,795.4 569.7,780.3 558.7,769.6 573.9,767.4 580.6,753.6 587.5,767.3 
			602.7,769.5 591.7,780.2 		"/>
	</g>
	<g>
		<polygon class="st0" points="954,487.6 939.1,479.9 924.2,487.7 927,471.2 915,459.5 931.6,457 939,442 946.4,457 963.1,459.4 
			951.1,471.1 		"/>
		<polygon class="st11" points="909.2,795.4 895.6,788.2 882,795.4 884.6,780.3 873.6,769.6 888.8,767.4 895.5,753.6 902.3,767.3 
			917.5,769.5 906.6,780.2 		"/>
		<polygon class="st11" points="977.3,795.4 963.7,788.2 950.1,795.4 952.6,780.3 941.6,769.6 956.8,767.4 963.6,753.6 970.4,767.3 
			985.6,769.5 974.6,780.2 		"/>
	</g>
	<g>
		<polygon class="st0" points="1363.1,487.6 1348.2,479.9 1333.4,487.7 1336.2,471.2 1324.1,459.5 1340.7,457 1348.1,442 
			1355.6,457 1372.2,459.4 1360.2,471.1 		"/>
		<polygon class="st11" points="1283.4,795.4 1269.8,788.2 1256.2,795.4 1258.8,780.3 1247.8,769.6 1263,767.4 1269.7,753.6 
			1276.6,767.3 1291.8,769.5 1280.8,780.2 		"/>
		<polygon class="st11" points="1351.5,795.4 1337.9,788.2 1324.3,795.4 1326.9,780.3 1315.8,769.6 1331,767.4 1337.8,753.6 
			1344.6,767.3 1359.8,769.5 1348.8,780.2 		"/>
	</g>
	<g>
		<polygon class="st0" points="1781.7,487.6 1766.8,479.9 1752,487.7 1754.8,471.2 1742.7,459.5 1759.3,457 1766.7,442 1774.2,457 
			1790.8,459.4 1778.8,471.1 		"/>
		<polygon class="st14" points="1666.3,795.4 1652.7,788.2 1639.2,795.4 1641.7,780.3 1630.7,769.6 1645.9,767.4 1652.6,753.6 
			1659.5,767.3 1674.7,769.5 1663.7,780.2 		"/>
		<polygon class="st14" points="1734.4,795.4 1720.8,788.2 1707.2,795.4 1709.8,780.3 1698.7,769.6 1713.9,767.4 1720.7,753.6 
			1727.5,767.3 1742.7,769.5 1731.8,780.2 		"/>
	</g>
</g>
<g>
	<g>
		<polygon class="st0" points="535.3,611.3 520.4,603.6 505.6,611.4 508.4,594.9 496.4,583.2 513,580.7 520.3,565.6 527.8,580.7 
			544.4,583 532.4,594.8 		"/>
		<polygon class="st11" points="526.3,908.5 512.7,901.4 499.1,908.6 501.7,893.4 490.7,882.7 505.8,880.5 512.6,866.7 519.4,880.5 
			534.6,882.6 523.7,893.4 		"/>
		<polygon class="st11" points="594.3,908.5 580.7,901.4 567.2,908.6 569.7,893.4 558.7,882.7 573.9,880.5 580.6,866.7 587.5,880.5 
			602.7,882.6 591.7,893.4 		"/>
	</g>
	<g>
		<polygon class="st0" points="954,611.3 939.1,603.6 924.2,611.4 927,594.9 915,583.2 931.6,580.7 939,565.6 946.4,580.7 
			963.1,583 951.1,594.8 		"/>
		<polygon class="st0" points="805.2,611.3 790.3,603.6 775.4,611.4 778.2,594.9 766.2,583.2 782.8,580.7 790.2,565.6 797.6,580.7 
			814.3,583 802.3,594.8 		"/>
		<polygon class="st11" points="977.3,908.5 963.7,901.4 950.1,908.6 952.6,893.4 941.6,882.7 956.8,880.5 963.6,866.7 970.4,880.5 
			985.6,882.6 974.6,893.4 		"/>
	</g>
	<g>
		<polygon class="st0" points="1363.1,611.3 1348.2,603.6 1333.4,611.4 1336.2,594.9 1324.1,583.2 1340.7,580.7 1348.1,565.6 
			1355.6,580.7 1372.2,583 1360.2,594.8 		"/>
		<polygon class="st0" points="1214.3,611.3 1199.4,603.6 1184.6,611.4 1187.4,594.9 1175.3,583.2 1191.9,580.7 1199.3,565.6 
			1206.8,580.7 1223.4,583 1211.4,594.8 		"/>
		<polygon class="st11" points="1351.5,908.5 1337.9,901.4 1324.3,908.6 1326.9,893.4 1315.8,882.7 1331,880.5 1337.8,866.7 
			1344.6,880.5 1359.8,882.6 1348.8,893.4 		"/>
	</g>
	<g>
		<polygon class="st0" points="1781.7,611.3 1766.8,603.6 1752,611.4 1754.8,594.9 1742.7,583.2 1759.3,580.7 1766.7,565.6 
			1774.2,580.7 1790.8,583 1778.8,594.8 		"/>
		<polygon class="st0" points="1632.9,611.3 1618,603.6 1603.2,611.4 1606,594.9 1593.9,583.2 1610.5,580.7 1617.9,565.6 
			1625.4,580.7 1642,583 1630,594.8 		"/>
		<polygon class="st14" points="1734.4,908.5 1720.8,901.4 1707.2,908.6 1709.8,893.4 1698.7,882.7 1713.9,880.5 1720.7,866.7 
			1727.5,880.5 1742.7,882.6 1731.8,893.4 		"/>
	</g>
</g>
<g>
	<g>
		<polygon class="st0" points="535.3,741.4 520.4,733.6 505.6,741.4 508.4,724.9 496.4,713.2 513,710.7 520.3,695.7 527.8,710.7 
			544.4,713.1 532.4,724.8 		"/>
		<polygon class="st11" points="526.3,1027.4 512.7,1020.3 499.1,1027.5 501.7,1012.4 490.7,1001.7 505.8,999.4 512.6,985.6 
			519.4,999.4 534.6,1001.6 523.7,1012.3 		"/>
		<polygon class="st11" points="594.3,1027.4 580.7,1020.3 567.2,1027.5 569.7,1012.4 558.7,1001.7 573.9,999.4 580.6,985.6 
			587.5,999.4 602.7,1001.6 591.7,1012.3 		"/>
	</g>
	<g>
		<polygon class="st0" points="954,741.4 939.1,733.6 924.2,741.4 927,724.9 915,713.2 931.6,710.7 939,695.7 946.4,710.7 
			963.1,713.1 951.1,724.8 		"/>
		<polygon class="st0" points="805.2,741.4 790.3,733.6 775.4,741.4 778.2,724.9 766.2,713.2 782.8,710.7 790.2,695.7 797.6,710.7 
			814.3,713.1 802.3,724.8 		"/>
		<polygon class="st11" points="977.3,1027.4 963.7,1020.3 950.1,1027.5 952.6,1012.4 941.6,1001.7 956.8,999.4 963.6,985.6 
			970.4,999.4 985.6,1001.6 974.6,1012.3 		"/>
	</g>
	<g>
		<polygon class="st0" points="1363.1,741.4 1348.2,733.6 1333.4,741.4 1336.2,724.9 1324.1,713.2 1340.7,710.7 1348.1,695.7 
			1355.6,710.7 1372.2,713.1 1360.2,724.8 		"/>
		<polygon class="st0" points="1214.3,741.4 1199.4,733.6 1184.6,741.4 1187.4,724.9 1175.3,713.2 1191.9,710.7 1199.3,695.7 
			1206.8,710.7 1223.4,713.1 1211.4,724.8 		"/>
		<polygon class="st11" points="1351.5,1027.4 1337.9,1020.3 1324.3,1027.5 1326.9,1012.4 1315.8,1001.7 1331,999.4 1337.8,985.6 
			1344.6,999.4 1359.8,1001.6 1348.8,1012.3 		"/>
	</g>
	<g>
		<polygon class="st0" points="1781.7,741.4 1766.8,733.6 1752,741.4 1754.8,724.9 1742.7,713.2 1759.3,710.7 1766.7,695.7 
			1774.2,710.7 1790.8,713.1 1778.8,724.8 		"/>
		<polygon class="st0" points="1632.9,741.4 1618,733.6 1603.2,741.4 1606,724.9 1593.9,713.2 1610.5,710.7 1617.9,695.7 
			1625.4,710.7 1642,713.1 1630,724.8 		"/>
		<polygon class="st14" points="1734.4,1027.4 1720.8,1020.3 1707.2,1027.5 1709.8,1012.4 1698.7,1001.7 1713.9,999.4 1720.7,985.6 
			1727.5,999.4 1742.7,1001.6 1731.8,1012.3 		"/>
	</g>
</g>
<g>
	<g>
		<polygon class="st0" points="535.3,871.4 520.4,863.6 505.6,871.5 508.4,854.9 496.4,843.2 513,840.8 520.3,825.7 527.8,840.7 
			544.4,843.1 532.4,854.8 		"/>
		<polygon class="st0" points="386.5,871.4 371.6,863.6 356.8,871.5 359.6,854.9 347.6,843.2 364.2,840.8 371.5,825.7 379,840.7 
			395.6,843.1 383.6,854.8 		"/>
		<polygon class="st11" points="594.3,1146.4 580.7,1139.3 567.2,1146.4 569.7,1131.3 558.7,1120.6 573.9,1118.4 580.6,1104.6 
			587.5,1118.3 602.7,1120.5 591.7,1131.2 		"/>
	</g>
	<g>
		<polygon class="st0" points="954,871.4 939.1,863.6 924.2,871.5 927,854.9 915,843.2 931.6,840.8 939,825.7 946.4,840.7 
			963.1,843.1 951.1,854.8 		"/>
		<polygon class="st0" points="805.2,871.4 790.3,863.6 775.4,871.5 778.2,854.9 766.2,843.2 782.8,840.8 790.2,825.7 797.6,840.7 
			814.3,843.1 802.3,854.8 		"/>
		<polygon class="st11" points="977.3,1146.4 963.7,1139.3 950.1,1146.4 952.6,1131.3 941.6,1120.6 956.8,1118.4 963.6,1104.6 
			970.4,1118.3 985.6,1120.5 974.6,1131.2 		"/>
	</g>
	<g>
		<polygon class="st0" points="1363.1,871.4 1348.2,863.6 1333.4,871.5 1336.2,854.9 1324.1,843.2 1340.7,840.8 1348.1,825.7 
			1355.6,840.7 1372.2,843.1 1360.2,854.8 		"/>
		<polygon class="st0" points="1214.3,871.4 1199.4,863.6 1184.6,871.5 1187.4,854.9 1175.3,843.2 1191.9,840.8 1199.3,825.7 
			1206.8,840.7 1223.4,843.1 1211.4,854.8 		"/>
		<polygon class="st11" points="1351.5,1146.4 1337.9,1139.3 1324.3,1146.4 1326.9,1131.3 1315.8,1120.6 1331,1118.4 1337.8,1104.6 
			1344.6,1118.3 1359.8,1120.5 1348.8,1131.2 		"/>
	</g>
	<g>
		<polygon class="st0" points="1781.7,871.4 1766.8,863.6 1752,871.5 1754.8,854.9 1742.7,843.2 1759.3,840.8 1766.7,825.7 
			1774.2,840.7 1790.8,843.1 1778.8,854.8 		"/>
		<polygon class="st0" points="1632.9,871.4 1618,863.6 1603.2,871.5 1606,854.9 1593.9,843.2 1610.5,840.8 1617.9,825.7 
			1625.4,840.7 1642,843.1 1630,854.8 		"/>
		<polygon class="st14" points="1734.4,1146.4 1720.8,1139.3 1707.2,1146.4 1709.8,1131.3 1698.7,1120.6 1713.9,1118.4 
			1720.7,1104.6 1727.5,1118.3 1742.7,1120.5 1731.8,1131.2 		"/>
	</g>
</g>
<g>
	<g>
		<polygon class="st0" points="535.3,1004.6 520.4,996.8 505.6,1004.7 508.4,988.1 496.4,976.4 513,974 520.3,958.9 527.8,973.9 
			544.4,976.3 532.4,988 		"/>
		<polygon class="st0" points="386.5,1004.6 371.6,996.8 356.8,1004.7 359.6,988.1 347.6,976.4 364.2,974 371.5,958.9 379,973.9 
			395.6,976.3 383.6,988 		"/>
		<polygon class="st11" points="594.3,1268.2 580.7,1261.1 567.2,1268.3 569.7,1253.1 558.7,1242.4 573.9,1240.2 580.6,1226.4 
			587.5,1240.2 602.7,1242.3 591.7,1253.1 		"/>
	</g>
	<g>
		<polygon class="st0" points="954,1004.6 939.1,996.8 924.2,1004.7 927,988.1 915,976.4 931.6,974 939,958.9 946.4,973.9 
			963.1,976.3 951.1,988 		"/>
		<polygon class="st0" points="805.2,1004.6 790.3,996.8 775.4,1004.7 778.2,988.1 766.2,976.4 782.8,974 790.2,958.9 797.6,973.9 
			814.3,976.3 802.3,988 		"/>
		<polygon class="st11" points="977.3,1268.2 963.7,1261.1 950.1,1268.3 952.6,1253.1 941.6,1242.4 956.8,1240.2 963.6,1226.4 
			970.4,1240.2 985.6,1242.3 974.6,1253.1 		"/>
	</g>
	<g>
		<polygon class="st0" points="1363.1,1004.6 1348.2,996.8 1333.4,1004.7 1336.2,988.1 1324.1,976.4 1340.7,974 1348.1,958.9 
			1355.6,973.9 1372.2,976.3 1360.2,988 		"/>
		<polygon class="st0" points="1214.3,1004.6 1199.4,996.8 1184.6,1004.7 1187.4,988.1 1175.3,976.4 1191.9,974 1199.3,958.9 
			1206.8,973.9 1223.4,976.3 1211.4,988 		"/>
		<polygon class="st11" points="1351.5,1268.2 1337.9,1261.1 1324.3,1268.3 1326.9,1253.1 1315.8,1242.4 1331,1240.2 1337.8,1226.4 
			1344.6,1240.2 1359.8,1242.3 1348.8,1253.1 		"/>
	</g>
	<g>
		<polygon class="st0" points="1781.7,1004.6 1766.8,996.8 1752,1004.7 1754.8,988.1 1742.7,976.4 1759.3,974 1766.7,958.9 
			1774.2,973.9 1790.8,976.3 1778.8,988 		"/>
		<polygon class="st0" points="1632.9,1004.6 1618,996.8 1603.2,1004.7 1606,988.1 1593.9,976.4 1610.5,974 1617.9,958.9 
			1625.4,973.9 1642,976.3 1630,988 		"/>
		<polygon class="st14" points="1734.4,1268.2 1720.8,1261.1 1707.2,1268.3 1709.8,1253.1 1698.7,1242.4 1713.9,1240.2 
			1720.7,1226.4 1727.5,1240.2 1742.7,1242.3 1731.8,1253.1 		"/>
	</g>
</g>
<text transform="matrix(1 0 0 1 869.5195 89.7793)" class="st6 st9 st8 st10">使用频率 </text>
<text transform="matrix(1 0 0 1 1255.6387 89.7793)" class="st6 st9 st8 st10">重要程度</text>
<text transform="matrix(1 0 0 1 1630.3984 90.9141)" class="st6 st9 st8 st10">综合评分</text>
</svg>
