<?xml version="1.0" encoding="utf-8"?>
<!-- Generator: Adobe Illustrator 21.0.0, SVG Export Plug-In . SVG Version: 6.00 Build 0)  -->
<svg version="1.1" id="Capa_1" xmlns="http://www.w3.org/2000/svg" xmlns:xlink="http://www.w3.org/1999/xlink" x="0px" y="0px"
	 viewBox="0 0 512 512" style="enable-background:new 0 0 512 512;" xml:space="preserve">
<style type="text/css">
	.st0{fill:#4C4C4C;}
	.st1{fill:#FB5353;}
</style>
<g>
	<path class="st0" d="M435.9,256.3c0-30.9-58.2-49.6-114.2-57.1c-16.2-24.5-42.3-40.5-71.9-40.5s-55.7,16-71.9,40.5
		c-55.6,7.4-114.2,26.2-114.2,57.1c0,22.3,36.1,45.5,104.4,56c14.6,35,46.7,57.6,81.7,57.6c34.7,0,66.6-22.3,81.4-56.8
		c0.1-0.3,0.1-0.6,0.2-0.8C399.8,301.8,435.9,278.5,435.9,256.3z M249.8,169.2c43.7,0,79.2,39,79.2,87c0,7.1-28,20.9-79.2,20.9
		s-79.2-13.8-79.2-20.9C170.7,208.3,206.2,169.2,249.8,169.2z M249.9,359.3c-29.3,0-56.1-17.6-70.2-45.5c20.7,2.6,44.1,4.1,70.1,4.1
		c26.1,0,49.5-1.5,70.3-4.1C306.1,341.7,279.1,359.3,249.9,359.3z M249.8,307.4c-104,0-176.4-26.9-176.4-51.1
		c0-15.2,30.8-35.4,97.9-45.5c-6.5,13.6-10.3,29.1-10.3,45.5c0,20.6,44.7,31.4,88.8,31.4s88.8-10.8,88.8-31.4
		c0-16.4-3.7-31.9-10.3-45.5c67.1,10.1,97.9,30.2,97.9,45.5C426.3,280.5,353.8,307.4,249.8,307.4z"/>
	<path class="st1" d="M248.9,248.2c12.4,0,22.6-10.1,22.6-22.6c0-4-1.1-8-3.1-11.5c-4-6.8-11.5-11.1-19.4-11.1
		c-12.4,0-22.6,10.1-22.6,22.6c0,6.5,2.8,12.8,7.8,17.1C238.3,246.3,243.5,248.2,248.9,248.2z M248.9,212.7c4.6,0,8.8,2.4,11.1,6.4
		c1.2,2,1.8,4.3,1.8,6.6c0,7.1-5.8,12.9-12.9,12.9c-3.1,0-6.1-1.1-8.5-3.2c-2.8-2.5-4.5-6-4.5-9.8
		C236,218.5,241.8,212.7,248.9,212.7z"/>
</g>
</svg>
