<?xml version="1.0" encoding="utf-8"?>
<!-- Generator: Adobe Illustrator 21.0.0, SVG Export Plug-In . SVG Version: 6.00 Build 0)  -->
<svg version="1.1" id="图层_1" xmlns="http://www.w3.org/2000/svg" xmlns:xlink="http://www.w3.org/1999/xlink" x="0px" y="0px"
	 viewBox="0 0 66 66" style="enable-background:new 0 0 66 66;" xml:space="preserve">
<style type="text/css">
	.st0{fill:#FFFFFF;}
	.st1{fill:#555555;}
	.st2{fill:#FB565A;}
</style>
<title>画板 2</title>
<circle class="st0" cx="33" cy="33" r="32"/>
<path class="st1" d="M18.6,51L18.6,51c-0.9,0-1.6-6.9-1.6-6.9c0-0.6,0.7-1,1.6-1l0,0c0.9,0,1.6,0.5,1.6,1C20.1,44.1,19.4,51,18.6,51
	z"/>
<path class="st1" d="M48.9,24.5c2.2-1.2,4.1-4.3,3.8-5.8c0-0.2-0.2-0.4-0.4-0.5c-0.3-0.1-0.6,0-0.8,0.2c-2.4,1.9-5.2,3.2-8.2,3.9
	c-3.1,0.9-11.4,1.8-12.9,2.1c-4.1,0.8-7.4,3.6-8.9,7.5c-0.9,2.5-0.7,5.5-0.7,8c-0.1,1.8,0,3.6,0.2,5.4v0.1v0.1l0,0v0.1l0.1,0.1l0,0
	l0,0l0,0c0.3,0.2,0.6,0.2,0.9,0l0,0c0.1-0.1,0.2-0.1,0.2-0.2l0,0c0.5-0.6,0.8-1.8,1.3-2.7c1.2-2,3.3-2,5.8-1
	c0.4,0.2,0.9,0.3,1.3,0.4h0.1c0.9,0.3,1.9,0.5,2.8,0.5l0,0c3.3,0,6.3-2.1,7.5-5.2c0.5-1.1,1.6-4.7,2-5.6c0.1-0.2,0.2-0.3,0.4-0.4
	c0.7-0.2,1.2-0.4,1.4-0.4c2.6-1,4.8-2.9,6.1-5.3c0.5-1,0.9-2.1,1.1-3.3c0-0.1-0.1-0.2-0.2-0.1c-1,1-2.2,1.7-3.5,2
	C48.8,24.6,48.8,24.6,48.9,24.5z M39.5,36.6c-1.1,3.1-4.5,4.7-7.6,3.7c-2.4-0.8-4-2.9-4-5.4c0-0.1,0.1-0.2,0.1-0.2
	c0.7-0.3,1.4-0.5,2.1-0.7c0.1,0,0.2,0,0.2,0.1l0,0c-0.2,2,1.1,3.7,3.1,4c0.1,0,0.1,0,0.2,0c0.1,0,0.1,0,0.2-0.1s0-0.1-0.1-0.2
	c-0.8-0.7-0.8-1.9-0.1-2.6s1.9-0.8,2.6-0.1c0.3,0.3,0.5,0.7,0.6,1.2c0,0.1,0,0.1,0.1,0.1s0.1,0,0.1-0.1c0.1-0.2,0.2-0.4,0.3-0.6
	c0.3-0.9,0.3-1.9-0.2-2.8c0-0.1,0-0.2,0.1-0.2l0,0c0.8-0.1,1.5-0.2,2.1-0.4c0.1,0,0.2,0,0.2,0.1C40,33.9,40,35.3,39.5,36.6z
	 M55,28.1c0,0.4-0.3,0.6-0.7,0.6s-0.6-0.3-0.6-0.6c0-0.4,0.3-0.6,0.6-0.6S55,27.8,55,28.1L55,28.1z"/>
<circle class="st2" cx="34.6" cy="35.9" r="2.4"/>
</svg>
