<svg id="图层_1" data-name="图层 1" xmlns="http://www.w3.org/2000/svg" viewBox="0 0 66 66"><defs><style>.cls-1{fill:#f3f3f3;}.cls-2{fill:#3d3d3a;}</style></defs><title>画板 2</title><circle class="cls-1" cx="33.02" cy="32.98" r="32.02"/><path class="cls-2" d="M18.57,51h0C17.7,51,17,44.11,17,44.11c0-.57.71-1,1.58-1h0c.87,0,1.58.47,1.58,1C20.15,44.11,19.44,51,18.57,51Z"/><path class="cls-2" d="M48.93,24.51c2.15-1.19,4.07-4.31,3.82-5.75a.53.53,0,0,0-.36-.46,1,1,0,0,0-.85.2,22.47,22.47,0,0,1-8.19,3.94c-3.13.86-11.39,1.75-12.87,2.08A11.72,11.72,0,0,0,21.62,32c-.89,2.53-.67,5.53-.66,8a28.68,28.68,0,0,0,.23,5.39l0,.09,0,.1,0,0,0,.07.06.07,0,0,0,0h0a.74.74,0,0,0,.88,0h0a.76.76,0,0,0,.21-.23h0c.47-.62.78-1.76,1.33-2.69,1.18-2,3.3-2,5.83-1,.44.18.87.32,1.27.44l.14.05a8.22,8.22,0,0,0,2.81.47h0a8.24,8.24,0,0,0,7.55-5.16c.51-1.12,1.64-4.71,2-5.65a.54.54,0,0,1,.42-.36c.71-.19,1.18-.36,1.39-.42a11.48,11.48,0,0,0,6.1-5.34,13.07,13.07,0,0,0,1.14-3.26c0-.11-.1-.17-.18-.08a7.27,7.27,0,0,1-3.51,2C48.84,24.64,48.82,24.57,48.93,24.51ZM39.53,36.6a6,6,0,0,1-7.61,3.65,5.74,5.74,0,0,1-4-5.41.2.2,0,0,1,.13-.18A16,16,0,0,1,30.17,34a.14.14,0,0,1,.17.15,3.57,3.57,0,0,0,3.26,4,.12.12,0,0,0,.1-.22,1.85,1.85,0,1,1,3.08-1.59.11.11,0,0,0,.22,0,3.56,3.56,0,0,0,.28-.6,3.51,3.51,0,0,0-.16-2.75.14.14,0,0,1,.1-.2c.84-.13,1.5-.23,2.08-.36a.19.19,0,0,1,.23.13A5.78,5.78,0,0,1,39.53,36.6ZM55,28.14a.65.65,0,1,1-.65-.65A.65.65,0,0,1,55,28.14Z"/></svg>