<?xml version="1.0" encoding="UTF-8"?>
<svg width="101px" height="101px" viewBox="0 0 101 101" version="1.1" xmlns="http://www.w3.org/2000/svg" xmlns:xlink="http://www.w3.org/1999/xlink">
    <!-- Generator: Sketch 55.2 (78181) - https://sketchapp.com -->
    <title>二维码</title>
    <desc>Created with Sketch.</desc>
    <defs>
        <rect id="path-1" x="37.4758735" y="37.5383333" width="25.8801997" height="25.9233333" rx="3.44820822"></rect>
    </defs>
    <g id="Page-1" stroke="none" stroke-width="1" fill="none" fill-rule="evenodd">
        <g id="color" transform="translate(-367.000000, -3542.000000)">
            <g id="二维码" transform="translate(367.000000, 3541.000000)">
                <g id="编组" transform="translate(50.522838, 51.467973) scale(-1, 1) rotate(-180.000000) translate(-50.522838, -51.467973) translate(0.022838, 0.967973)">
                    <path d="M0.0456769861,100.720906 C0.0182707944,100.656852 0.00913539721,96.3652095 0.0182707944,91.1768063 L0.0456769861,81.7516648 L9.54649009,81.7516648 L19.0473032,81.7516648 L19.0473032,91.2683126 L19.0473032,100.78496 L9.56476088,100.812412 C2.02805818,100.830713 0.0730831777,100.812412 0.0456769861,100.720906 Z M16.306684,91.2683126 L16.306684,84.4968516 L9.54649009,84.4968516 L2.78629615,84.4968516 L2.75888996,91.1768063 C2.74975456,94.8553567 2.75888996,97.9116648 2.78629615,97.9757191 C2.81370234,98.0672254 4.22055351,98.0855266 9.56476088,98.0672254 L16.306684,98.0397735 L16.306684,91.2683126 Z" id="形状" fill="#262626" fill-rule="nonzero"></path>
                    <polygon id="路径" fill="#262626" fill-rule="nonzero" points="5.48123833 91.2683126 5.48123833 87.1962854 9.54649009 87.1962854 13.6117418 87.1962854 13.6117418 91.2683126 13.6117418 95.3403398 9.54649009 95.3403398 5.48123833 95.3403398"></polygon>
                    <path d="M21.8518701,100.720906 C21.7239746,100.592797 21.6965684,95.6514609 21.8153285,95.4501472 C21.8792763,95.3677916 22.4822125,95.3403398 24.5376769,95.358641 L27.1778067,95.3860929 L27.1778067,98.0855266 L27.1778067,100.78496 L24.5742185,100.812412 C22.6192435,100.830713 21.9340887,100.803262 21.8518701,100.720906 Z" id="路径" fill="#262626" fill-rule="nonzero"></path>
                    <path d="M30.0280506,100.766659 C29.9915091,100.739207 29.9641029,100.116965 29.9641029,99.3940657 L29.9641029,98.076376 L31.3161417,98.1038279 L32.659045,98.1312797 L32.6864512,99.3483126 C32.704722,100.181019 32.6773158,100.611099 32.6042327,100.702605 C32.5220141,100.803262 32.220546,100.830713 31.2887355,100.830713 C30.6309869,100.830713 30.0554568,100.803262 30.0280506,100.766659 Z" id="路径" fill="#262626" fill-rule="nonzero"></path>
                    <path d="M35.3905288,100.711755 C35.372258,100.647701 35.3631226,100.034609 35.372258,99.3574632 L35.3996642,98.1312797 L36.7242968,98.1312797 L38.0489294,98.1312797 L38.0489294,99.45812 L38.0489294,100.78496 L36.7425676,100.812412 C35.7285385,100.830713 35.4270704,100.812412 35.3905288,100.711755 Z" id="路径" fill="#262626" fill-rule="nonzero"></path>
                    <path d="M43.6397925,100.77581 C43.6032509,100.739207 43.5758447,100.116965 43.5758447,99.3940657 L43.5758447,98.0855266 L44.9004773,98.0855266 L46.2251099,98.0855266 L46.2251099,96.7129332 L46.2251099,95.3403398 L44.9004773,95.3403398 L43.5667093,95.3403398 L43.5941155,93.9951982 L43.6215217,92.640906 L44.9004773,92.640906 L46.1794329,92.640906 L46.2068391,93.9951982 L46.2342453,95.3403398 L47.5954195,95.3403398 L48.9565937,95.3403398 L48.9839999,93.9951982 L49.0114061,92.640906 L50.3360387,92.640906 L51.6606712,92.640906 L51.6880774,93.9951982 L51.7154836,95.3494904 L53.058387,95.3220385 L54.4012904,95.2945866 L54.4469674,93.9677463 L54.4926444,92.640906 L55.7990062,92.6134541 L57.0962326,92.5860023 L57.0962326,91.2683126 L57.0962326,89.9506229 L55.7990062,89.923171 L54.4926444,89.8957191 L54.4469674,88.5688788 L54.4012904,87.2420385 L51.7063482,87.2420385 L49.0114061,87.2420385 L48.9657291,88.5688788 L48.9200521,89.8957191 L46.2707869,89.8957191 L43.6215217,89.8957191 L43.5941155,88.5505776 L43.5667093,87.1962854 L39.4831868,87.1779841 L35.3996642,87.1505323 L35.372258,85.8053907 L35.3448518,84.4510985 L34.0293546,84.4510985 L32.704722,84.4510985 L32.6955866,88.2760589 C32.6864512,90.3715515 32.6773158,92.2016761 32.6681804,92.3480861 L32.6407742,92.5951529 L33.992813,92.5951529 L35.3448518,92.5951529 L35.372258,91.2957644 L35.3996642,89.9872254 L36.751703,89.9597735 L38.0946064,89.9323216 L38.0946064,91.2683126 L38.0946064,92.5951529 L39.3552912,92.5951529 C40.040446,92.5951529 40.661653,92.6317554 40.7256008,92.6683579 C40.8078194,92.7324122 40.8352255,93.0618347 40.8169548,94.0226501 L40.7895486,95.2945866 L39.464916,95.2945866 L38.1402834,95.2945866 L38.1128772,93.9494451 L38.085471,92.5951529 L36.7242968,92.5951529 L35.3539872,92.5951529 L35.3539872,93.9677463 L35.3539872,95.3403398 L34.0293546,95.3403398 C33.0335963,95.3403398 32.704722,95.3128879 32.6955866,95.2305323 C32.6955866,95.1664779 32.6773158,94.5533862 32.6773158,93.8762401 L32.659045,92.640906 L31.3161417,92.6134541 L29.9732383,92.5860023 L29.9458321,91.2866138 L29.9184259,89.9872254 L27.2234837,89.9872254 L24.5285415,89.9872254 L24.5011353,91.2957644 L24.4737291,92.6043035 L23.1308257,92.5768516 L21.7879224,92.5493998 L21.7605162,87.2511891 C21.7513808,83.3530238 21.7696516,81.9255266 21.8427347,81.8248698 C21.9249533,81.7242129 22.217286,81.7059117 23.1947735,81.7242129 L24.4371875,81.7516648 L24.4828645,83.0785051 L24.5285415,84.4053454 L25.8805803,84.4327973 L27.2234837,84.4602492 L27.2234837,81.7516648 L27.2234837,79.052231 L29.8636135,79.052231 C31.9099425,79.052231 32.5220141,79.0247792 32.5950973,78.9332729 C32.659045,78.860068 32.6955866,78.3567837 32.6955866,77.6796376 C32.6955866,77.0482446 32.6955866,76.480906 32.6955866,76.4260023 C32.704722,76.334496 33.3350644,76.3070442 35.3813934,76.2887429 L38.0489294,76.2612911 L38.0946064,74.9344507 L38.1402834,73.6076104 L40.8352255,73.6076104 L43.5301677,73.6076104 L43.5575739,74.7514383 C43.5941155,76.4534541 43.7220111,76.3070442 42.1598581,76.3070442 L40.8352255,76.3070442 L40.8352255,77.6796376 L40.8352255,79.052231 L43.5118969,79.0339298 L46.1794329,79.0064779 L46.2251099,76.3070442 L46.2707869,73.6076104 L47.5954195,73.6076104 L48.9200521,73.6076104 L48.9657291,74.9344507 L49.0114061,76.2612911 L50.3634448,76.2887429 L51.7063482,76.3161948 L51.7063482,74.9436014 L51.7063482,73.5710079 L53.058387,73.5435561 L54.4012904,73.5161042 L54.4469674,72.1892639 L54.4926444,70.8624236 L55.7716,70.8624236 L57.0505556,70.8624236 L57.0962326,72.1892639 L57.1419096,73.5161042 L61.2071613,73.5161042 L65.2724131,73.5161042 L65.2998193,72.1709626 L65.3272255,70.8166704 L62.6048771,70.7983692 L59.8825287,70.7709173 L59.8825287,68.1172367 L59.8825287,65.4635561 L61.2254321,65.4361042 L62.5683355,65.4086523 L62.5957417,66.7537939 L62.6231479,68.0897848 L63.8016141,68.0897848 C64.4502273,68.0806342 65.0531636,68.1172367 65.1445175,68.1721404 C65.2998193,68.254496 65.3180901,68.3917554 65.3180901,69.5355832 L65.3180901,70.8166704 L66.6701289,70.8166704 L68.0130323,70.8166704 L67.9947615,68.1904417 C67.9764907,66.7354926 67.9673553,65.5276104 67.9673553,65.4910079 C67.9673553,65.4544054 67.3826899,65.4086523 66.6701289,65.3995017 L65.3637671,65.3720498 L65.3180901,64.0452095 L65.2724131,62.7183692 L64.0391345,62.6909173 C63.3631151,62.6817667 62.7510435,62.6543148 62.6962311,62.626863 C62.6231479,62.5994111 62.7236373,62.3797961 62.9885638,61.9863194 C63.2169487,61.6568969 63.3996567,61.3183239 63.3996567,61.2268177 C63.3996567,61.1353114 63.4636044,60.9797508 63.5366876,60.879094 C63.637177,60.7418347 63.6645832,60.3575085 63.6737186,58.9940657 C63.6737186,57.0266818 63.5732292,57.2005436 64.6786123,57.1639411 L65.2724131,57.1364892 L65.2998193,54.4645074 L65.3180901,51.7833749 L66.6427227,51.7833749 L67.9673553,51.7833749 L67.9673553,54.3363986 C67.9673553,55.7455946 67.9947615,56.9534768 68.0221677,57.0358324 C68.0678446,57.1639411 68.3967189,57.1822424 70.7627868,57.1822424 L73.4485936,57.1822424 L73.4485936,55.855402 L73.4485936,54.5377123 L72.1056902,54.5102605 L70.7536514,54.4828086 L70.7536514,53.1559683 L70.7536514,51.829128 L72.078284,51.829128 L73.4029166,51.829128 L73.4303228,53.1834202 L73.457729,54.5285617 L74.8189032,54.5285617 L76.1892128,54.5285617 L76.2074836,51.8108267 L76.2348898,49.0839411 L77.5595224,49.038188 L78.8841549,48.9924349 L78.9115611,47.6381427 L78.9389673,46.2930011 L76.216619,46.3113024 L73.4942706,46.3387542 L73.4485936,47.6655946 L73.4029166,48.9924349 L72.078284,48.9924349 L70.7536514,48.9924349 L70.7536514,46.3387542 L70.7536514,43.6850736 L74.8463094,43.6576217 L78.9298319,43.6393205 L78.9298319,44.9661608 L78.9298319,46.2930011 L80.2544645,46.2930011 L81.5790971,46.2930011 L81.5790971,44.9661608 L81.5790971,43.6484711 L80.2453291,43.6210193 L78.9115611,43.5935674 L78.9206965,42.3582333 C78.9298319,41.6810872 78.9024257,41.0771461 78.8567488,41.0130917 C78.8110718,40.9307361 78.3908435,40.8941336 77.5138454,40.8758324 L76.2348898,40.8483805 L76.2074836,38.1306455 L76.1892128,35.4037599 L74.8189032,35.4037599 L73.4485936,35.4037599 L73.4303228,38.1306455 L73.4029166,40.8483805 L72.078284,40.8483805 L70.7536514,40.8483805 L70.7079744,39.5215402 L70.6622975,38.1946999 L69.3193941,38.1489468 L67.9764907,38.1031937 L67.9764907,36.7763533 L67.9764907,35.449513 L65.2815485,35.4220612 L62.5774709,35.4037599 L62.5774709,32.7043262 L62.5774709,30.0048924 L61.1980259,30.0048924 L59.8277164,30.0048924 L59.8368518,33.4180747 C59.8459872,35.2848018 59.8459872,36.8770102 59.8459872,36.9410646 C59.8368518,37.0325708 58.7223333,37.050872 54.4286966,37.0325708 L49.0114061,37.0051189 L48.9657291,36.227316 L48.9200521,35.449513 L47.6959089,35.4220612 C46.9468063,35.4037599 46.435224,35.4312118 46.3712763,35.4952661 C46.3255993,35.5410193 46.2799223,35.9070442 46.2799223,36.2913703 L46.2707869,37.0051189 L43.6306571,37.0325708 C42.1050458,37.0417214 40.9448503,37.0142695 40.8991733,36.9685164 C40.7895486,36.8587089 40.8169548,32.8141336 40.9357149,32.7500793 C40.9813919,32.7134768 41.5569219,32.6860249 42.2146705,32.6768743 C42.8632837,32.6677237 43.4388138,32.6402718 43.4844907,32.6128199 C43.5393031,32.5762174 43.5758447,31.9905776 43.5758447,31.276829 L43.5758447,30.0048924 L47.6410965,30.0048924 L51.7063482,30.0048924 L51.7063482,27.2597055 L51.7063482,24.5053681 L50.3634448,24.5328199 L49.0114061,24.5602718 L48.9839999,25.914564 L48.9565937,27.2597055 L46.2707869,27.2597055 L43.5758447,27.2597055 L43.5758447,25.8871121 L43.5758447,24.5145187 L42.2055351,24.5145187 L40.8352255,24.5145187 L40.8169548,27.2414043 L40.7895486,29.9591393 L39.464916,30.0048924 L38.1402834,30.0506455 L38.1128772,34.140974 L38.0946064,38.2313024 L37.6835135,38.8352435 C37.4551286,39.1646659 37.2724206,39.503239 37.2724206,39.5947452 C37.2724206,39.6862514 37.2084729,39.841812 37.1353897,39.9516195 C37.0257649,40.1071801 36.9983587,40.6745187 36.9800879,43.19094 L36.9526817,46.247248 L36.176173,46.247248 L35.3996642,46.247248 L35.372258,43.5752661 L35.3539872,40.9032843 L34.0110838,40.8758324 L32.6681804,40.8483805 L32.6773158,38.2221518 C32.6864512,36.7763533 32.7138574,35.5501699 32.750399,35.4952661 C32.7869406,35.4403624 33.3076582,35.4037599 34.084167,35.4037599 L35.3631226,35.4037599 L35.3357164,34.0494677 L35.3083102,32.7043262 L32.796076,32.6860249 C31.416631,32.6768743 30.2107586,32.6677237 30.12854,32.658573 C29.9823737,32.658573 29.9641029,32.5304643 29.9641029,31.3317327 L29.9641029,30.0048924 L28.5937933,30.0048924 L27.2326191,30.0048924 L27.2052129,31.3408834 L27.1778067,32.6677237 L25.8531741,32.6677237 L24.5285415,32.6677237 L24.5011353,31.3317327 L24.4737291,29.9957418 L23.1308257,30.0231937 L21.7879224,30.0506455 L21.7605162,31.276829 C21.7422454,32.0637826 21.7696516,32.5396149 21.8335993,32.6036693 C21.8884117,32.658573 22.3817232,32.6860249 23.2039089,32.6677237 L24.4828645,32.6402718 L24.4828645,34.0220159 L24.4828645,35.4037599 L20.4176128,35.4037599 L16.3432256,35.4037599 L16.3706318,36.7489015 L16.398038,38.1031937 L17.7226706,38.1489468 L19.0473032,38.1946999 L19.0747094,39.5398414 L19.1021156,40.884983 L20.4267482,40.9124349 L21.7513808,40.9398867 L21.7513808,42.2667271 L21.7513808,43.5935674 L20.4267482,43.6210193 L19.1021156,43.6484711 L19.0747094,44.9478596 L19.0473032,46.247248 L17.7043998,46.2746999 L16.352361,46.3021518 L16.352361,44.9661608 L16.352361,43.6393205 L14.9820514,43.6393205 L13.6117418,43.6393205 L13.6117418,44.9661608 L13.6117418,46.2930011 L12.351057,46.2930011 C11.4923297,46.2930011 11.0538306,46.3296036 10.9807475,46.4028086 C10.9076643,46.4760136 10.8711227,46.9152435 10.8711227,47.775402 L10.8711227,49.0290374 L12.2140261,49.0564892 L13.5660649,49.0839411 L13.6117418,50.4107814 L13.6574188,51.7376217 L15.0003222,51.7650736 L16.3432256,51.7925255 L16.3706318,50.4382333 L16.398038,49.0839411 L17.7226706,49.0839411 L19.0473032,49.0839411 L19.0473032,50.4107814 L19.0473032,51.7376217 L17.6952644,51.7650736 L16.3432256,51.7925255 L16.3706318,53.137667 L16.398038,54.4828086 L17.7226706,54.5285617 L19.0473032,54.5743148 L19.0473032,55.855402 L19.0473032,57.1364892 L17.7226706,57.1822424 L16.398038,57.2279955 L16.3706318,58.573137 L16.3432256,59.9274292 L20.3902066,59.9457305 L24.4371875,59.9731823 L24.4371875,61.3000227 L24.4371875,62.626863 L20.4176128,62.6726161 L16.398038,62.7183692 L16.398038,64.0452095 L16.398038,65.3720498 L21.7879224,65.3720498 L27.1778067,65.3720498 L27.1778067,61.3000227 L27.1778067,57.2279955 L24.4828645,57.1822424 L21.7879224,57.1364892 L21.7879224,55.855402 L21.7879224,54.5743148 L24.4828645,54.5285617 L27.1778067,54.4828086 L27.1778067,53.1559683 L27.1778067,51.829128 L25.8531741,51.7833749 L24.5285415,51.7376217 L24.4828645,50.4107814 L24.4371875,49.0839411 L23.112555,49.038188 L21.7879224,48.9924349 L21.7605162,46.320453 L21.7422454,43.6393205 L23.112555,43.6393205 L24.4737291,43.6393205 L24.5011353,42.2941789 L24.5285415,40.9398867 L25.8531741,40.9398867 L27.1778067,40.9398867 L27.1778067,42.2667271 L27.1778067,43.5935674 L25.8257679,43.6210193 L24.4737291,43.6484711 L24.5011353,44.9478596 L24.5285415,46.247248 L25.8531741,46.2930011 L27.1778067,46.3387542 L27.2234837,47.6655946 L27.2691607,48.9924349 L28.5937933,49.038188 L29.9184259,49.0839411 L29.9641029,50.4107814 L30.0097798,51.7376217 L31.2978709,51.7650736 C32.4763371,51.7833749 32.5950973,51.7742242 32.6316389,51.6278143 C32.659045,51.536308 32.6681804,50.9598188 32.659045,50.3375764 C32.659045,49.7244847 32.6773158,49.1754473 32.704722,49.1296942 C32.7412636,49.0656399 33.2528459,49.038188 34.03849,49.0564892 L35.3083102,49.0839411 L35.3539872,50.4107814 L35.3996642,51.7376217 L36.176173,51.7833749 L36.9526817,51.829128 L36.9800879,53.1285164 C37.0074941,54.6292186 37.0897127,54.5102605 35.993465,54.546863 L35.3996642,54.5743148 L35.372258,58.6280408 L35.3539872,62.6726161 L36.7699738,62.6726161 L38.1859604,62.6726161 L38.7888966,63.0843941 C39.1177709,63.3131597 39.4557806,63.4961721 39.5379991,63.4961721 C39.6202177,63.5053228 39.7937903,63.5602265 39.9216858,63.6334315 C40.0952584,63.7340883 40.5428928,63.7615402 41.8035777,63.7706908 C43.4479492,63.7706908 43.4662199,63.7706908 43.5210323,63.9811552 C43.6123863,64.3380294 43.5758447,65.198188 43.4662199,65.3079955 C43.3840014,65.3903511 42.6531696,65.4178029 40.7256008,65.4178029 L38.0946064,65.4178029 L38.0946064,66.7812458 L38.0946064,68.1446886 L39.2182602,68.1080861 C39.8303319,68.0897848 40.4424035,68.0989354 40.5885698,68.1263873 L40.8443609,68.1812911 L40.8169548,69.4715289 L40.7895486,70.7709173 L39.464916,70.7709173 L38.1402834,70.7709173 L38.0946064,69.444077 L38.0489294,68.1172367 L36.176173,68.1538392 C35.1438731,68.1721404 33.947136,68.1538392 33.508637,68.1172367 L32.704722,68.0531823 L32.704722,66.8819026 C32.704722,66.2322084 32.6773158,65.6465685 32.6499096,65.5642129 C32.6042327,65.4361042 32.3941185,65.4178029 31.2796001,65.4178029 L29.9641029,65.4178029 L29.9458321,70.8441223 L29.9184259,76.2612911 L27.2234837,76.2612911 L24.5285415,76.2612911 L24.5011353,74.9161495 L24.4737291,73.5710079 L23.1308257,73.5435561 L21.7879224,73.5161042 L21.7422454,72.1892639 L21.6965684,70.8624236 L20.399342,70.8349717 L19.1021156,70.8075198 L19.0747094,72.161812 L19.0473032,73.5161042 L14.9820514,73.5618573 L10.9167997,73.6076104 L10.8893935,76.2795923 L10.8711227,78.9607248 L10.6610085,79.0064779 C10.5513838,79.0339298 9.96671836,79.0430804 9.36378214,79.0339298 L8.26753448,79.0064779 L8.22185749,77.6796376 L8.17618051,76.3527973 L5.48123833,76.3070442 L2.78629615,76.2612911 L2.74061916,74.9344507 L2.69494218,73.6076104 L1.37030958,73.5618573 L0.0456769861,73.5161042 L0.0182707944,65.4727067 C0.00913539721,59.6071574 0.0274061916,57.4018573 0.100489369,57.3103511 C0.182707944,57.2096942 0.511582244,57.1822424 1.47079895,57.1822424 L2.74061916,57.1822424 L2.74061916,54.4828086 L2.74061916,51.7925255 L1.38858038,51.7650736 L0.0456769861,51.7376217 L0.0182707944,49.0930917 C-1.90819582e-16,47.0342016 0.0274061916,46.4302605 0.109624767,46.3662061 C0.173572547,46.3296036 0.794779558,46.2930011 1.48906975,46.2930011 L2.74061916,46.2930011 L2.74061916,44.9661608 L2.74061916,43.6393205 L1.47079895,43.6393205 C0.511582244,43.6393205 0.182707944,43.6118686 0.100489369,43.5112118 C0.0274061916,43.4288562 -1.90819582e-16,42.632752 0.0182707944,40.7934768 L0.0456769861,38.1946999 L1.38858038,38.167248 L2.74061916,38.1397961 L2.74061916,35.4586636 L2.74061916,32.7683805 L2.97813949,32.7134768 C3.10603505,32.6768743 3.71810667,32.658573 4.34844907,32.6677237 L5.48123833,32.6768743 L5.46296753,35.3854587 L5.43556134,38.1031937 L4.09265795,38.1306455 L2.74061916,38.1580974 L2.74061916,40.8941336 L2.74061916,43.6393205 L4.11092875,43.6393205 L5.48123833,43.6393205 L5.48123833,44.9661608 L5.48123833,46.3021518 L6.83327712,46.2746999 L8.17618051,46.247248 L8.2035867,44.9478596 L8.23099289,43.6393205 L10.9167997,43.6393205 L13.6117418,43.6393205 L13.5934711,40.9215855 L13.5660649,38.1946999 L12.2414323,38.1946999 L10.9167997,38.1946999 L10.8711227,39.5215402 L10.8254457,40.8483805 L9.54649009,40.8483805 L8.26753448,40.8483805 L8.26753448,38.1489468 L8.26753448,35.449513 L12.30538,35.4220612 L16.3432256,35.4037599 L16.3706318,34.0769196 L16.398038,32.7500793 L17.640452,32.7134768 C18.3256068,32.6951755 18.9376784,32.6494224 18.9924908,32.6219706 C19.0564386,32.5762174 19.0929802,32.1186863 19.0929802,31.2859796 L19.0929802,30.0048924 L16.3797672,29.9865912 L13.6574188,29.9591393 L13.6300126,28.6139977 L13.6026065,27.2688562 L12.2597031,27.2414043 L10.9167997,27.2139524 L10.8711227,25.8871121 L10.8254457,24.5602718 L9.54649009,24.5602718 L8.26753448,24.5602718 L8.22185749,25.8871121 L8.17618051,27.2139524 L5.46296753,27.2414043 L2.74975456,27.2597055 L2.72234837,28.6139977 L2.69494218,29.9591393 L1.37030958,29.9591393 L0.0456769861,29.9591393 L0.0456769861,28.632299 L0.0456769861,27.3054587 L1.39771577,27.2780068 L2.74975456,27.2505549 L2.72234837,25.9054134 L2.69494218,24.5602718 L1.37030958,24.5145187 L0.0456769861,24.4687656 L0.0182707944,23.2425821 C-1.90819582e-16,22.419026 0.0274061916,21.9797961 0.100489369,21.8974405 C0.191843342,21.7876331 1.69004848,21.7693318 9.53735469,21.7693318 C16.6812353,21.7693318 18.9011368,21.7967837 18.9833554,21.8791393 C19.0564386,21.9523443 19.0929802,22.3915742 19.0929802,23.2517327 L19.0929802,24.5145187 L23.1582319,24.5145187 L27.2143483,24.5145187 L27.2417545,23.1602265 L27.2691607,21.8150849 L29.9184259,21.7876331 C31.7729115,21.7693318 32.5768265,21.7327293 32.6225035,21.6595243 C32.659045,21.6046206 32.6864512,21.0555832 32.6864512,20.4516421 C32.6864512,19.8385504 32.6955866,19.289513 32.6955866,19.2346093 C32.704722,19.1522537 33.0610025,19.1156512 34.0110838,19.0973499 L35.3083102,19.0698981 L35.3357164,17.7247565 L35.3631226,16.3704643 L32.6681804,16.3704643 L29.9732383,16.3704643 L29.9458321,17.7247565 L29.9184259,19.0698981 L28.5755225,19.0973499 L27.2234837,19.1248018 L27.2234837,20.4424915 L27.2234837,21.7601812 L24.5650831,21.7876331 C22.6649205,21.8059343 21.8884117,21.7876331 21.8244639,21.7144281 C21.778787,21.6503737 21.7513808,21.0555832 21.7605162,20.3875878 L21.7879224,19.1614043 L23.112555,19.1156512 L24.4371875,19.0698981 L24.4828645,17.7430578 L24.5285415,16.4162174 L27.2508899,16.3887656 L29.9732383,16.3704643 L29.9458321,15.0161721 L29.9184259,13.6710306 L28.5663871,13.6435787 L27.2143483,13.6161268 L27.2417545,12.2709853 L27.2691607,10.9258437 L29.8910197,10.8983918 C32.3210353,10.8800906 32.5220141,10.8892412 32.5950973,11.0356512 C32.6499096,11.1271574 32.6864512,11.694496 32.6864512,12.2984371 C32.6955866,12.9023783 32.6955866,13.4514156 32.6955866,13.51547 C32.704722,13.5978256 33.0335963,13.6252775 34.0293546,13.6252775 L35.3539872,13.6252775 L35.372258,10.9532956 L35.3996642,8.27216308 L36.7425676,8.24471121 L38.085471,8.21725934 L38.1128772,6.87211778 L38.1402834,5.52697622 L39.464916,5.52697622 L40.7895486,5.52697622 L40.8169548,6.7989128 C40.8352255,7.7597282 40.8078194,8.08915062 40.7256008,8.15320498 C40.661653,8.18980747 40.040446,8.22640997 39.3552912,8.22640997 L38.0946064,8.22640997 L38.0763356,10.9075425 L38.0489294,13.5795243 L36.706026,13.6069762 L35.3539872,13.6344281 L35.3539872,14.9978709 L35.3539872,16.3613137 L36.706026,16.3887656 L38.0489294,16.4162174 L38.0763356,19.0973499 L38.0946064,21.7693318 L36.8247862,21.7693318 C35.8655695,21.7693318 35.5366952,21.7967837 35.4544766,21.8974405 C35.3813934,21.9797961 35.3539872,22.7759003 35.372258,24.6151755 L35.3996642,27.2139524 L36.7242968,27.2139524 L38.0489294,27.2139524 L38.0946064,25.8871121 L38.1402834,24.5602718 L39.4923222,24.5328199 L40.8352255,24.5053681 L40.8352255,23.196829 C40.8352255,22.080453 40.8534963,21.8699887 40.9813919,21.8242356 C41.2554538,21.7144281 43.3474598,21.7601812 43.4662199,21.8791393 C43.5393031,21.9523443 43.5758447,22.3915742 43.5758447,23.2517327 L43.5758447,24.5145187 L44.9004773,24.5145187 L46.2251099,24.5145187 L46.2433807,21.8425368 L46.2707869,19.1614043 L47.6228257,19.1339524 L48.9657291,19.1065006 L48.9657291,17.7430578 L48.9657291,16.3704643 L44.9278835,16.3521631 L40.8809025,16.3247112 L40.8809025,13.6252775 L40.8809025,10.9258437 L43.5575739,10.8983918 L46.2251099,10.8800906 L46.2251099,9.55325028 L46.2251099,8.23556059 L44.9278835,8.20810872 L43.6215217,8.18065685 L43.5941155,5.45377123 L43.5758447,2.73603624 L42.2055351,2.73603624 L40.8260902,2.73603624 L40.8534963,1.39089468 L40.8809025,0.0366024915 L42.1050458,0.00915062288 C42.9272315,-0.00915062288 43.3657306,0.0183012458 43.4479492,0.0915062288 C43.5484385,0.173861835 43.5758447,0.494133635 43.5758447,1.46409966 L43.5758447,2.73603624 L44.9004773,2.73603624 L46.2251099,2.73603624 L46.2251099,1.48240091 C46.2251099,0.786953567 46.2616515,0.164711212 46.2981931,0.100656852 C46.3621409,0.0183012458 46.6910152,-0.00915062288 47.6502319,0.00915062288 L48.9200521,0.0366024915 L48.9657291,1.36344281 L49.0114061,2.69028313 L50.3543094,2.71773499 L51.6972128,2.74518686 L51.724619,1.39089468 L51.7520252,0.0366024915 L53.0218454,0.00915062288 C53.9810621,-0.00915062288 54.3099364,0.0183012458 54.3738842,0.100656852 C54.4104258,0.164711212 54.4469674,0.786953567 54.4469674,1.48240091 L54.4469674,2.73603624 L55.7716,2.73603624 L57.0962326,2.73603624 L57.0962326,1.46409966 C57.0962326,0.503284258 57.1236388,0.173861835 57.2241282,0.0915062288 C57.3063467,0.0183012458 58.4574068,-2.06865775e-16 61.3076507,0.00915062288 L65.2724131,0.0366024915 L65.2724131,1.36344281 L65.2724131,2.69028313 L62.5774709,2.73603624 L59.8825287,2.78178935 L59.8368518,5.4812231 L59.7911748,8.18065685 L58.5670315,8.20810872 C57.7448458,8.22640997 57.3063467,8.1989581 57.2241282,8.12575311 C57.1236388,8.04339751 57.0962326,7.72312571 57.0962326,6.75315968 L57.0962326,5.49037373 L55.7990062,5.46292186 L54.4926444,5.43546999 L54.4652382,4.09032843 L54.437832,2.73603624 L53.0766578,2.73603624 L51.7154836,2.73603624 L51.6880774,4.09032843 L51.6606712,5.43546999 L48.9657291,5.4812231 L46.2707869,5.52697622 L46.2707869,6.85381653 L46.2707869,8.18065685 L47.6228257,8.20810872 L48.9657291,8.23556059 L48.9657291,9.55325028 L48.9657291,10.8800906 L50.3360387,10.8800906 L51.7063482,10.8800906 L51.7063482,9.55325028 L51.7063482,8.21725934 L53.058387,8.24471121 L54.4012904,8.27216308 L54.4012904,10.9258437 L54.4012904,13.5795243 L51.7063482,13.6252775 L49.0114061,13.6710306 L48.9839999,15.0161721 L48.9565937,16.3704643 L51.678942,16.3887656 L54.4012904,16.4162174 L54.4286966,17.688154 C54.4469674,18.6489694 54.4195612,18.9783918 54.3373426,19.0424462 C54.2733949,19.0790487 53.0401162,19.1156512 51.5967235,19.1156512 L48.9657291,19.1156512 L48.9657291,20.4424915 L48.9657291,21.7693318 L50.1898723,21.7693318 C50.8658917,21.7693318 51.4779633,21.7967837 51.5601819,21.8242356 C51.6880774,21.8699887 51.7063482,22.080453 51.7063482,23.196829 L51.7063482,24.5145187 L53.0766578,24.5145187 L54.437832,24.5145187 L54.4652382,23.1693771 L54.4926444,21.8150849 L55.7898708,21.7876331 L57.0870972,21.7601812 L57.1145034,20.4607928 L57.1419096,19.1614043 L61.2071613,19.1156512 L65.2724131,19.0698981 L65.2724131,17.7430578 L65.2724131,16.4162174 L61.2071613,16.3704643 L57.1419096,16.3247112 L57.1419096,14.9978709 L57.1419096,13.6710306 L59.8368518,13.6252775 L62.5317939,13.5795243 L62.5592001,10.8983918 L62.5774709,8.21725934 L63.9295097,8.24471121 L65.2724131,8.27216308 L65.2998193,9.58070215 L65.3272255,10.8892412 L66.6518581,10.8617894 L67.9764907,10.8343375 L67.9764907,6.89041903 C67.9764907,4.73087203 68.0130323,2.90074745 68.0495739,2.84584371 C68.1043862,2.76348811 68.4606667,2.73603624 69.3924772,2.75433749 L70.6622975,2.78178935 L70.6897036,8.1989581 L70.7079744,13.6161268 L72.0600132,13.6435787 L73.4029166,13.6710306 L73.4029166,14.9978709 L73.4029166,16.3247112 L72.078284,16.3247112 L70.7536514,16.3247112 L70.7262452,14.9795696 L70.698839,13.6252775 L69.3924772,13.6252775 C68.3693128,13.6252775 68.0678446,13.6527293 68.0313031,13.7533862 C68.0038969,13.8174405 67.9856261,15.6384145 67.9764907,17.7979615 L67.9764907,21.7235787 L66.6701289,21.7693318 L65.3637671,21.8150849 L65.3363609,23.1602265 L65.3089547,24.5145187 L69.3833418,24.5145187 L73.457729,24.5145187 L73.4303228,23.1602265 L73.4029166,21.8150849 L72.078284,21.7693318 L70.7536514,21.7235787 L70.7536514,20.4424915 L70.7536514,19.1614043 L73.4485936,19.1156512 L76.1435358,19.0698981 L76.1892128,14.9978709 L76.2348898,10.9258437 L77.5595224,10.8800906 L78.8841549,10.8343375 L78.9115611,9.53494904 L78.9389673,8.22640997 L80.2544645,8.22640997 L81.5699617,8.22640997 L81.5973679,9.53494904 L81.6247741,10.8343375 L82.9768129,10.8617894 L84.3197163,10.8892412 L84.3197163,9.56240091 L84.3197163,8.23556059 L85.6717551,8.20810872 L87.0146585,8.18065685 L87.0420647,6.83551529 L87.0694709,5.49037373 L85.7174321,5.46292186 L84.3653933,5.43546999 L84.3379871,4.09032843 L84.3105809,2.73603624 L81.6247741,2.73603624 L78.9298319,2.73603624 L78.9298319,3.96221971 C78.9298319,4.6393658 78.9024257,5.25245753 78.8750196,5.33481314 C78.8293426,5.46292186 78.6192284,5.4812231 77.50471,5.4812231 L76.1892128,5.4812231 L76.1892128,6.80806342 C76.1892128,8.37281993 76.3353791,8.24471121 74.6361952,8.20810872 L73.4942706,8.18065685 L73.4942706,5.4812231 L73.4942706,2.78178935 L74.8189032,2.73603624 L76.1435358,2.69028313 L76.1892128,1.36344281 L76.2348898,0.0366024915 L80.2544645,0.0366024915 L84.2740393,0.0366024915 L84.3014455,1.39089468 L84.3288517,2.73603624 L85.6900259,2.73603624 L87.0512001,2.73603624 L87.0786062,1.39089468 L87.1060124,0.0366024915 L88.3301557,0.00915062288 C89.1523414,-0.00915062288 89.5908405,0.0183012458 89.6730591,0.0915062288 C89.7735484,0.173861835 89.8009546,0.494133635 89.8009546,1.46409966 L89.8009546,2.73603624 L91.1255872,2.73603624 L92.4502198,2.73603624 L92.4502198,4.10862967 L92.4502198,5.4812231 L93.8205294,5.4812231 L95.1817036,5.4812231 L95.2091098,6.83551529 L95.236516,8.18065685 L96.5611486,8.18065685 L97.8857812,8.18065685 L97.9314581,6.85381653 L97.9771351,5.52697622 L99.3017677,5.52697622 L100.6264,5.52697622 L100.6264,8.18065685 L100.6264,10.8343375 L99.3017677,10.8800906 L97.9771351,10.9258437 L97.9314581,12.252684 L97.8857812,13.5795243 L96.5337424,13.6069762 L95.1817036,13.6344281 L95.2091098,14.9795696 L95.236516,16.3247112 L97.9314581,16.3704643 L100.6264,16.4162174 L100.6264,19.0698981 L100.6264,21.7235787 L99.3017677,21.7693318 L97.9771351,21.8150849 L97.9497289,23.1602265 L97.9223227,24.5053681 L99.2743615,24.5328199 L100.6264,24.5602718 L100.6264,29.9591393 L100.6264,35.3580068 L99.2834969,35.3854587 L97.9314581,35.4129105 L97.9314581,29.9591393 L97.9314581,24.5145187 L92.523303,24.5328199 L87.1060124,24.5602718 L87.0786062,25.9054134 L87.0512001,27.2505549 L88.4032388,27.2780068 L89.7552776,27.3054587 L89.7826838,28.6597508 L89.81009,30.0048924 L91.1255872,30.0048924 L92.4410844,30.0048924 L92.4684906,28.6597508 L92.4958968,27.3054587 L93.8205294,27.3054587 L95.145162,27.3054587 L95.145162,28.632299 L95.145162,29.9591393 L93.7931232,29.9865912 L92.4502198,30.014043 L92.4684906,34.0586183 L92.4958968,38.1031937 L96.5611486,38.1489468 L100.6264,38.1946999 L100.6264,39.5215402 L100.6264,40.8483805 L99.2834969,40.8758324 L97.9314581,40.9032843 L97.9314581,43.5935674 L97.9314581,46.2930011 L99.1556014,46.2930011 C99.8316208,46.2930011 100.443692,46.320453 100.525911,46.3479049 C100.653807,46.393658 100.672077,46.8420385 100.672077,50.419932 L100.672077,54.4370555 L100.471099,54.4828086 C100.352338,54.5102605 99.7494022,54.5194111 99.1190598,54.5102605 L97.9771351,54.4828086 L97.9314581,53.1559683 L97.8857812,51.829128 L96.5611486,51.829128 L95.236516,51.829128 L95.2091098,54.5011099 L95.190839,57.1730917 L96.5337424,57.2005436 L97.8857812,57.2279955 L97.9131873,58.573137 L97.9405935,59.9182786 L99.2834969,59.9457305 L100.6264,59.9731823 L100.653807,69.3891733 C100.662942,76.2704417 100.644671,78.8326161 100.571588,78.9241223 C100.489369,79.0247792 99.9595163,79.052231 97.9771351,79.052231 C96.5976901,79.052231 95.4192239,79.0247792 95.3370053,78.9973273 C95.2091098,78.9515742 95.190839,78.7411099 95.190839,77.6247339 L95.190839,76.2978935 L93.8479356,76.3253454 L92.4958968,76.3527973 L92.4502198,77.6796376 L92.4045428,79.0064779 L88.567676,79.0339298 C86.4573992,79.0430804 84.6394552,79.0339298 84.5298304,79.0064779 C84.3197163,78.9607248 84.3197163,78.9332729 84.3197163,77.6338845 L84.3197163,76.3161948 L82.9768129,76.2887429 L81.6247741,76.2612911 L81.6247741,73.5618573 L81.6247741,70.8624236 L82.9768129,70.8349717 L84.3197163,70.8075198 L84.3197163,69.4989807 C84.3197163,68.327701 84.3014455,68.1812911 84.1644145,68.1446886 C84.0730606,68.1263873 83.5066659,68.1080861 82.9037297,68.1172367 C82.3007935,68.1263873 81.7526697,68.0897848 81.6978573,68.0440317 C81.6065033,67.9799773 81.5790971,67.3211325 81.5790971,65.3171461 L81.5790971,62.6726161 L78.8841549,62.6726161 L76.1800774,62.6726161 L76.2074836,64.0269083 L76.2348898,65.3720498 L77.5595224,65.4178029 L78.8841549,65.4635561 L78.9115611,66.7171914 C78.9298319,67.842718 78.9206965,67.9799773 78.7745302,68.0531823 C78.6831762,68.1080861 78.1167816,68.1446886 77.5138454,68.1446886 C76.9109091,68.1446886 76.3627853,68.1446886 76.3079729,68.1538392 C76.216619,68.1629898 76.1892128,68.4924122 76.1892128,69.4898301 L76.1892128,70.8166704 L77.5138454,70.8166704 C79.0759983,70.8166704 78.9481027,70.6702605 78.9115611,72.3722763 L78.8841549,73.5161042 L77.5412516,73.5435561 L76.1892128,73.5710079 L76.1892128,72.1892639 L76.1892128,70.8166704 L74.8189032,70.8166704 L73.4485936,70.8166704 L73.4485936,66.7446433 L73.4485936,62.6634655 L72.1056902,62.6909173 L70.7536514,62.7183692 L70.7262452,66.7629445 L70.7079744,70.8075198 L69.3559357,70.8349717 L68.0130323,70.8624236 L68.0130323,72.1252095 C68.0038969,72.8206569 68.0313031,73.424598 68.0587092,73.4703511 C68.0861154,73.5161042 68.6890517,73.5710079 69.3833418,73.5801586 L70.6622975,73.6076104 L70.7079744,74.9344507 L70.7536514,76.2612911 L73.4485936,76.3070442 L76.1435358,76.3527973 L76.170942,77.6247339 C76.1892128,78.5855493 76.1618066,78.9149717 76.079588,78.979026 C76.0156402,79.0156285 75.3944332,79.052231 74.700143,79.052231 L73.4485936,79.052231 L73.4668644,81.7333635 L73.4942706,84.4053454 L74.8189032,84.4053454 L76.1435358,84.4053454 L76.1892128,83.0785051 L76.2348898,81.7516648 L77.459033,81.7242129 C78.2812187,81.7059117 78.7197178,81.7333635 78.8019364,81.8065685 C78.9115611,81.8980747 78.9298319,82.9869989 78.9298319,88.5139751 C78.9298319,92.1376217 78.8932903,95.1573273 78.8567488,95.2213817 C78.8110718,95.3037373 78.3908435,95.3403398 77.5138454,95.358641 L76.2348898,95.3860929 L76.1892128,98.0855266 L76.1435358,100.78496 L72.1787734,100.812412 C69.3102587,100.821563 68.1866048,100.803262 68.0952508,100.730057 C67.9947615,100.647701 67.9673553,100.34573 67.9947615,99.3574632 L68.0221677,98.0855266 L65.3180901,98.0672254 L62.6231479,98.0397735 L62.5957417,96.6854813 L62.5683355,95.3311891 L61.2254321,95.358641 L59.8825287,95.3860929 L59.8368518,96.7129332 L59.7911748,98.0397735 L58.4665422,98.0855266 L57.1419096,98.1312797 L57.0962326,99.45812 L57.0505556,100.78496 L55.7716,100.78496 L54.4926444,100.78496 L54.4469674,99.45812 L54.4012904,98.1312797 L53.058387,98.1038279 L51.7154836,98.076376 L51.6880774,99.4306682 L51.6606712,100.78496 L50.3360387,100.78496 L49.0114061,100.78496 L48.9839999,99.4398188 L48.9565937,98.0855266 L47.5954195,98.0855266 L46.2342453,98.0855266 L46.2068391,99.4398188 L46.1794329,100.78496 L44.9370189,100.812412 C44.2609995,100.821563 43.6763341,100.803262 43.6397925,100.77581 Z M51.7063482,96.7129332 L51.7063482,95.3403398 L50.3360387,95.3403398 L48.9657291,95.3403398 L48.9657291,96.7129332 L48.9657291,98.0855266 L50.3360387,98.0855266 L51.7063482,98.0855266 L51.7063482,96.7129332 Z M70.6897036,95.4409966 C70.698839,93.7115289 70.744516,92.7964666 70.8084638,92.714111 C70.8906824,92.6226048 71.2378275,92.5951529 72.1787734,92.5951529 L73.4485936,92.5951529 L73.4485936,91.2683126 L73.4485936,89.9414723 L68.0404385,89.923171 L62.6231479,89.8957191 L62.5957417,88.5505776 L62.5683355,87.1962854 L66.6153165,87.1779841 L70.6622975,87.1505323 L70.6897036,83.105957 C70.7079744,79.2901472 70.698839,79.052231 70.5526727,79.0430804 C69.4838312,79.0156285 68.0952508,79.0796829 68.0495739,79.1620385 C68.0130323,79.2169422 67.9856261,80.4248245 67.9764907,81.8340204 L67.9764907,84.4053454 L66.6518581,84.4327973 L65.3272255,84.4602492 L65.2998193,83.105957 L65.2724131,81.7516648 L63.9477805,81.7516648 L62.6231479,81.7516648 L62.5957417,84.4693998 L62.5774709,87.1962854 L59.8551225,87.2145866 L57.1419096,87.2420385 L57.1419096,88.5688788 L57.1419096,89.8957191 L58.484813,89.923171 L59.8277164,89.9506229 L59.8551225,91.2500113 L59.8825287,92.5493998 L61.2071613,92.5951529 L62.5317939,92.640906 L62.5592001,93.9951982 L62.5866063,95.3403398 L65.2724131,95.3403398 C67.3644191,95.3403398 67.9673553,95.3677916 67.9764907,95.4592978 C67.9764907,95.5142016 67.9856261,96.0998414 67.9856261,96.7586863 C67.9856261,97.4083805 68.0038969,97.9757191 68.0313031,98.0214723 C68.0495739,98.0580747 68.6525101,98.076376 69.365071,98.0672254 L70.6622975,98.0397735 L70.6897036,95.4409966 Z M29.9458321,85.8053907 L29.9732383,84.4510985 L31.325277,84.4510985 L32.6773158,84.4510985 L32.6681804,83.1700113 C32.659045,82.4288109 32.6133681,81.8523216 32.5585557,81.7974179 C32.4946079,81.7333635 31.992161,81.7059117 31.2339231,81.7242129 L30.0097798,81.7516648 L29.9823737,83.105957 L29.9549675,84.4510985 L28.5937933,84.4510985 L27.2234837,84.4510985 L27.2234837,85.7596376 C27.2234837,86.4825368 27.2508899,87.1047792 27.2874315,87.1413817 C27.3239731,87.1688335 27.9269093,87.1871348 28.6303349,87.1779841 L29.9184259,87.1505323 L29.9458321,85.8053907 Z M46.2068391,85.8053907 L46.2342453,84.4510985 L47.6045549,84.4510985 L48.9748645,84.4510985 L48.9474583,83.105957 L48.9200521,81.7516648 L47.6959089,81.7242129 C46.8737231,81.7059117 46.435224,81.7333635 46.3530055,81.8065685 C46.2525161,81.8889241 46.2251099,82.2091959 46.2251099,83.1791619 L46.2251099,84.4510985 L44.9004773,84.4510985 L43.5758447,84.4510985 L43.5758447,83.1883126 C43.5758447,82.328154 43.5393031,81.8889241 43.4662199,81.8157191 C43.3931368,81.7425142 42.9546377,81.7059117 42.0959104,81.7059117 L40.8352255,81.7059117 L40.8352255,80.3790713 L40.8352255,79.052231 L39.464916,79.052231 L38.0946064,79.052231 L38.0946064,80.3790713 L38.0946064,81.696761 L36.751703,81.7242129 L35.3996642,81.7516648 L35.372258,83.105957 L35.3448518,84.4602492 L36.6968906,84.4327973 L38.0489294,84.4053454 L38.0763356,83.0602039 L38.1037418,81.7059117 L39.464916,81.7059117 L40.8352255,81.7059117 L40.8352255,83.0785051 L40.8352255,84.4510985 L42.2055351,84.4510985 L43.5758447,84.4510985 L43.5758447,85.823692 L43.5758447,87.205436 L44.8822065,87.1779841 L46.1794329,87.1505323 L46.2068391,85.8053907 Z M54.4286966,83.0602039 L54.4561028,81.7059117 L55.7716,81.7059117 L57.0870972,81.7059117 L57.1145034,83.0602039 L57.1419096,84.4053454 L58.4939484,84.4327973 L59.8459872,84.4602492 L59.818581,83.105957 L59.7911748,81.7516648 L58.439136,81.7242129 L57.0870972,81.696761 L57.1145034,80.3973726 L57.1419096,79.0979841 L58.2838342,79.0796829 C60.0012889,79.0430804 59.8368518,79.1894904 59.8368518,77.6338845 L59.8368518,76.3070442 L55.7716,76.3070442 L51.6972128,76.3070442 L51.724619,77.6613364 L51.7520252,79.0064779 L53.0766578,79.052231 L54.4012904,79.0979841 L54.4286966,80.3973726 L54.4561028,81.696761 L53.104064,81.7242129 L51.7520252,81.7516648 L51.724619,83.105957 L51.6972128,84.4602492 L53.0492516,84.4327973 L54.4012904,84.4053454 L54.4286966,83.0602039 Z M67.9673553,78.8966704 C67.9764907,78.6496036 67.9764907,76.554111 67.9764907,76.4168516 C67.9673553,76.3253454 67.4009606,76.3070442 65.2998193,76.3253454 L62.6231479,76.3527973 L62.5957417,77.5789807 C62.5866063,78.2561268 62.5957417,78.8692186 62.6140125,78.9332729 C62.6505541,79.0247792 63.2260841,79.052231 65.3180901,79.052231 C67.7755119,79.052231 67.9673553,79.0430804 67.9673553,78.8966704 Z M89.7552776,74.9344507 L89.7552776,73.6076104 L88.430645,73.5618573 L87.1060124,73.5161042 L87.0786062,72.161812 L87.0512001,70.8166704 L89.7278714,70.8349717 L92.4045428,70.8624236 L92.4502198,72.1892639 L92.4958968,73.5161042 L95.190839,73.5161042 L97.8857812,73.5161042 L97.8857812,69.4898301 L97.8857812,65.4635561 L96.5611486,65.4178029 L95.236516,65.3720498 L95.2091098,64.0269083 L95.1817036,62.6817667 L96.5337424,62.6543148 L97.8857812,62.626863 L97.9131873,61.2817214 L97.9405935,59.9274292 L96.5611486,59.9274292 L95.190839,59.9274292 L95.190839,58.5548358 L95.190839,57.1822424 L92.4958968,57.1822424 L89.81009,57.1822424 L89.7826838,55.8828539 L89.7552776,54.5743148 L88.430645,54.5285617 L87.1060124,54.4828086 L87.0786062,53.137667 L87.0512001,51.7925255 L88.4032388,51.7650736 L89.7552776,51.7376217 L89.7826838,50.3924802 L89.81009,49.038188 L91.1255872,49.038188 L92.4502198,49.038188 L92.4502198,47.775402 C92.4502198,46.9152435 92.4867614,46.4760136 92.5598446,46.4028086 C92.6329278,46.3296036 93.0714268,46.2930011 93.9301542,46.2930011 L95.1817036,46.2930011 L95.2091098,47.6472933 L95.236516,48.9924349 L96.5611486,48.9924349 L97.8857812,48.9924349 L97.9131873,47.6472933 L97.9405935,46.2930011 L96.5611486,46.2930011 L95.190839,46.2930011 L95.190839,44.9661608 L95.190839,43.6393205 L93.9301542,43.6393205 C93.0714268,43.6393205 92.6329278,43.602718 92.5598446,43.529513 C92.4867614,43.456308 92.4502198,43.0170781 92.4502198,42.1569196 L92.4502198,40.8941336 L87.0420647,40.9124349 L81.6247741,40.9398867 L81.5973679,42.2850283 L81.5699617,43.6393205 L85.6626197,43.6576217 L89.7552776,43.6850736 L89.7826838,46.3662061 L89.8009546,49.038188 L87.0603355,49.038188 L84.3288517,49.038188 L84.3014455,47.6930464 L84.2740393,46.3387542 L82.9311359,46.3113024 L81.5790971,46.2838505 L81.5790971,47.6655946 L81.5790971,49.038188 L80.2727353,49.038188 C79.5510389,49.038188 78.9389673,49.0564892 78.9206965,49.0747905 C78.9024257,49.0930917 78.8932903,49.7153341 78.9115611,50.4473839 L78.9389673,51.7925255 L80.2361937,51.7650736 L81.5334201,51.7376217 L81.5608263,50.3924802 L81.5882325,49.038188 L82.9494067,49.038188 L84.3197163,49.038188 L84.3197163,53.1102152 L84.3197163,57.1822424 L81.6247741,57.1822424 L78.9389673,57.1822424 L78.9115611,55.8828539 L78.8841549,54.5743148 L77.5412516,54.546863 L76.1892128,54.5194111 L76.1892128,57.2188448 L76.1892128,59.9182786 L74.8463094,59.9457305 L73.4942706,59.9731823 L73.4668644,61.3274745 L73.4394582,62.6726161 L74.8189032,62.6726161 L76.1892128,62.6726161 L76.1892128,61.3000227 L76.1892128,59.9274292 L80.2544645,59.9274292 L84.3197163,59.9274292 L84.3197163,58.5548358 L84.3197163,57.1822424 L87.0603355,57.1822424 L89.81009,57.1822424 L89.7826838,58.5365345 L89.7552776,59.8816761 L88.430645,59.9274292 L87.1060124,59.9731823 L87.0603355,61.3000227 L87.0146585,62.626863 L85.6900259,62.6726161 L84.3653933,62.7183692 L84.3653933,64.0452095 L84.3653933,65.3720498 L85.6900259,65.4178029 L87.0146585,65.4635561 L87.0420647,68.1446886 L87.0603355,70.8166704 L85.6900259,70.8166704 L84.3197163,70.8166704 L84.3197163,73.5618573 L84.3197163,76.3070442 L87.0420647,76.2887429 L89.7552776,76.2612911 L89.7552776,74.9344507 Z M8.22185749,72.1892639 L8.26753448,70.8624236 L9.57389628,70.8349717 L10.8711227,70.8075198 L10.8711227,69.4898301 C10.8711227,68.4924122 10.8437165,68.1629898 10.7614979,68.1538392 C10.6975501,68.1446886 10.1128847,68.1355379 9.45513612,68.1263873 L8.26753448,68.1172367 L8.22185749,64.0452095 L8.17618051,59.9731823 L6.83327712,59.9457305 L5.48123833,59.9182786 L5.48123833,58.5548358 L5.48123833,57.191393 L6.83327712,57.1639411 L8.17618051,57.1364892 L8.2035867,55.8371008 L8.23099289,54.5285617 L9.54649009,54.5285617 L10.8711227,54.5285617 L10.8893935,57.2096942 L10.9167997,59.8816761 L12.2688385,59.909128 L13.6117418,59.9365798 L13.6117418,57.2371461 L13.6117418,54.5377123 L12.2688385,54.5102605 L10.9167997,54.4828086 L10.8893935,51.7650736 L10.8711227,49.038188 L9.54649009,49.038188 L8.23099289,49.038188 L8.2035867,50.3924802 L8.17618051,51.7376217 L6.83327712,51.7650736 L5.48123833,51.7925255 L5.48123833,49.038188 L5.48123833,46.2930011 L4.11092875,46.2930011 L2.74061916,46.2930011 L2.74061916,49.038188 L2.74061916,51.7833749 L4.11092875,51.7833749 L5.48123833,51.7833749 L5.48123833,54.4828086 L5.48123833,57.1822424 L4.11092875,57.1822424 L2.74061916,57.1822424 L2.75888996,61.2817214 L2.78629615,65.3720498 L4.11092875,65.4178029 L5.43556134,65.4635561 L5.46296753,69.3983239 C5.47210293,71.5670215 5.49950912,73.3879955 5.52691531,73.4520498 C5.55432151,73.5435561 5.88319581,73.5618573 6.86981871,73.5435561 L8.17618051,73.5161042 L8.22185749,72.1892639 Z M27.1778067,72.1892639 L27.1778067,70.8624236 L25.8531741,70.8624236 L24.5285415,70.8624236 L24.5011353,72.2167157 L24.4737291,73.5710079 L25.8257679,73.5435561 L27.1778067,73.5161042 L27.1778067,72.1892639 Z M19.0929802,69.5447339 C19.0929802,68.5381653 19.065574,68.254496 18.9559492,68.1629898 C18.8554599,68.0806342 18.5083148,68.0714836 17.5856396,68.1172367 L16.352361,68.1812911 L16.352361,69.4989807 L16.352361,70.8166704 L17.7226706,70.8166704 L19.0929802,70.8166704 L19.0929802,69.5447339 Z M13.5660649,64.0452095 L13.5660649,62.7183692 L12.2414323,62.7183692 L10.9167997,62.7183692 L10.8893935,63.9445527 C10.8802581,64.6216988 10.8893935,65.2347905 10.9076643,65.2988448 C10.9442059,65.3995017 11.245674,65.4178029 12.2597031,65.3995017 L13.5660649,65.3720498 L13.5660649,64.0452095 Z M35.3357164,64.0269083 L35.3631226,62.6726161 L34.0293546,62.6726161 L32.704722,62.6726161 L32.6955866,63.8621971 C32.6864512,64.5210419 32.6773158,65.1066818 32.6681804,65.1707361 C32.659045,65.2256399 32.659045,65.3079955 32.6864512,65.3537486 C32.704722,65.3903511 33.2985228,65.4086523 34.0110838,65.3995017 L35.3083102,65.3720498 L35.3357164,64.0269083 Z M32.6316389,62.5628086 C32.659045,62.4987542 32.6773158,60.6777803 32.6681804,58.5090827 L32.659045,54.5743148 L31.3161417,54.546863 L29.9641029,54.5194111 L29.9641029,58.5365345 C29.9641029,60.7418347 29.9915091,62.5811099 30.0280506,62.6085617 C30.0554568,62.6451642 30.6492577,62.6726161 31.3435478,62.6726161 C32.2570876,62.6726161 32.6042327,62.6451642 32.6316389,62.5628086 Z M19.0929802,42.2667271 L19.0929802,40.8941336 L17.7226706,40.8941336 L16.352361,40.8941336 L16.352361,42.2667271 L16.352361,43.6393205 L17.7226706,43.6393205 L19.0929802,43.6393205 L19.0929802,42.2667271 Z M87.0146585,36.7763533 L87.0146585,35.449513 L84.3197163,35.4037599 L81.6247741,35.3580068 L81.5973679,34.0769196 C81.5790971,33.216761 81.5425555,32.7775311 81.4694724,32.731778 C81.4055246,32.6951755 80.1905167,32.6677237 78.7745302,32.658573 L76.1892128,32.6494224 L76.1892128,34.0311665 L76.1892128,35.4037599 L77.4498976,35.4037599 C78.3086249,35.4037599 78.747124,35.4403624 78.8202072,35.5135674 C78.8932903,35.5867724 78.9298319,36.0260023 78.9298319,36.8861608 L78.9298319,38.1489468 L82.9768129,38.1306455 L87.0146585,38.1031937 L87.0146585,36.7763533 Z M57.0962326,32.7043262 L57.0962326,30.0048924 L58.4665422,30.0048924 L59.8277164,30.0048924 L59.8551225,28.6597508 L59.8825287,27.3054587 L61.2071613,27.3054587 L62.5317939,27.3054587 L62.5592001,28.6597508 L62.5866063,30.014043 L63.9295097,29.9865912 L65.2724131,29.9591393 L65.2998193,27.2414043 L65.3180901,24.5145187 L62.6048771,24.4962174 L59.8825287,24.4687656 L59.8551225,23.1693771 C59.8277164,21.6229219 59.9738827,21.7510306 58.2838342,21.7876331 L57.1419096,21.8150849 L57.1145034,23.1693771 L57.0870972,24.5145187 L55.7716,24.5145187 L54.4469674,24.5145187 L54.4469674,25.8871121 L54.4469674,27.2597055 L55.7716,27.2597055 L57.0962326,27.2597055 L57.0962326,28.632299 L57.0962326,30.0048924 L54.4012904,30.0048924 L51.7063482,30.0048924 L51.7063482,31.3317327 C51.7063482,32.5304643 51.6880774,32.658573 51.5510465,32.6768743 C51.4596925,32.6860249 50.8932979,32.7043262 50.2903617,32.7134768 C49.6874254,32.7226274 49.1393016,32.7409287 49.0844892,32.7409287 C48.9931353,32.7500793 48.9657291,33.0795017 48.9657291,34.0769196 L48.9657291,35.4037599 L53.0309808,35.4037599 L57.0962326,35.4037599 L57.0962326,32.7043262 Z M73.4485936,34.0769196 C73.4485936,32.5030125 73.3115626,32.6311212 75.0107465,32.6768743 L76.1435358,32.7043262 L76.170942,31.3591846 L76.1983482,30.0048924 L77.5138454,30.0048924 C79.0759983,30.0048924 78.9481027,30.1513024 78.9115611,28.4492865 L78.8841549,27.3054587 L76.1892128,27.3054587 L73.4942706,27.3054587 L73.4485936,28.632299 L73.4029166,29.9591393 L72.078284,29.9591393 L70.7536514,29.9591393 L70.7079744,28.632299 L70.6622975,27.3054587 L69.3742064,27.2780068 L68.0861154,27.2505549 L68.0221677,27.5982786 C67.9490845,28.0466591 67.9490845,35.0651869 68.0221677,35.2573499 C68.0678446,35.3854587 68.3967189,35.4037599 70.7627868,35.4037599 L73.4485936,35.4037599 L73.4485936,34.0769196 Z M89.6639237,32.6219706 C89.7735484,32.5853681 89.8009546,32.3291506 89.8009546,31.2859796 L89.8009546,30.0048924 L88.430645,30.0048924 L87.0603355,30.0048924 L87.0603355,28.632299 L87.0603355,27.2597055 L84.3471225,27.2780068 L81.6247741,27.3054587 L81.6247741,28.632299 L81.6247741,29.9591393 L84.3471225,29.9865912 L87.0603355,30.0048924 L87.0603355,31.3134315 C87.0603355,32.0363307 87.0786062,32.6494224 87.096877,32.6677237 C87.1516894,32.7226274 89.5086219,32.6860249 89.6639237,32.6219706 Z M21.7422454,28.632299 L21.7422454,27.2597055 L20.4176128,27.2597055 L19.0929802,27.2597055 L19.0929802,25.8871121 L19.0929802,24.5053681 L17.7500768,24.5328199 L16.398038,24.5602718 L16.398038,25.8871121 L16.398038,27.2139524 L17.7500768,27.2414043 L19.0929802,27.2688562 L19.0929802,28.632299 L19.0929802,30.0048924 L20.4176128,30.0048924 L21.7422454,30.0048924 L21.7422454,28.632299 Z M27.2234837,28.632299 L27.2234837,27.2505549 L28.5755225,27.2780068 L29.9184259,27.3054587 L29.9458321,28.6597508 L29.9732383,30.0048924 L31.2339231,30.0048924 C32.1383274,30.0048924 32.5220141,29.9682899 32.5859619,29.8950849 C32.6864512,29.7669762 32.7321282,25.209966 32.6499096,24.7707361 L32.5950973,24.5145187 L29.9092905,24.5145187 L27.2234837,24.5145187 L27.2234837,25.8871121 L27.2234837,27.2505549 L25.8805803,27.2780068 L24.5285415,27.3054587 L24.5011353,28.6597508 L24.4737291,30.0048924 L25.8531741,30.0048924 L27.2234837,30.0048924 L27.2234837,28.632299 Z M95.190839,20.4424915 L95.190839,19.1156512 L93.9301542,19.1156512 C93.0714268,19.1156512 92.6329278,19.0790487 92.5598446,19.0058437 C92.477626,18.9234881 92.4502198,18.1914383 92.4502198,16.2606569 L92.4502198,13.6252775 L93.8205294,13.6252775 L95.1999744,13.6252775 L95.1725682,12.2801359 L95.145162,10.9258437 L93.8205294,10.9258437 L92.4958968,10.9258437 L92.4684906,12.2709853 L92.4410844,13.6161268 L91.143858,13.6435787 L89.8466316,13.6710306 L89.8192254,17.6515515 C89.81009,19.8385504 89.8192254,21.6778256 89.8374962,21.7235787 C89.855767,21.7784824 90.8149837,21.8059343 92.5324384,21.7876331 L95.190839,21.7601812 L95.190839,20.4424915 Z M87.0420647,17.7247565 L87.0146585,13.6710306 L82.9950837,13.6710306 L78.9755089,13.6710306 L78.9481027,17.7247565 L78.9298319,21.7693318 L82.9950837,21.7693318 L87.0603355,21.7693318 L87.0420647,17.7247565 Z M92.4502198,8.18065685 L92.4502198,5.4812231 L91.1073164,5.4812231 L89.7552776,5.4812231 L89.7826838,4.10862967 L89.81009,2.73603624 L88.4397804,2.73603624 L87.0603355,2.73603624 L87.0603355,4.10862967 L87.0603355,5.47207248 L88.4123742,5.49952435 L89.7552776,5.52697622 L89.7826838,8.20810872 L89.8009546,10.8800906 L91.1255872,10.8800906 L92.4502198,10.8800906 L92.4502198,8.18065685 Z" id="形状" fill="#262626" fill-rule="nonzero"></path>
                    <path d="M89.855767,68.0989354 C89.8283608,68.062333 89.8009546,66.8361495 89.8009546,65.3537486 L89.8009546,62.6726161 L91.1255872,62.6726161 L92.4410844,62.6726161 L92.4684906,61.3274745 L92.4958968,59.9731823 L93.8479356,59.9457305 L95.190839,59.9182786 L95.190839,61.3000227 L95.190839,62.6726161 L93.8205294,62.6726161 L92.4502198,62.6726161 L92.4502198,65.3720498 C92.4502198,66.8544507 92.4228136,68.0714836 92.386272,68.0714836 C91.6554403,68.1172367 89.8923086,68.1355379 89.855767,68.0989354 Z" id="路径" fill="#262626" fill-rule="nonzero"></path>
                    <path d="M81.6156387,18.9966931 C81.5973679,18.9326387 81.5882325,18.319547 81.5973679,17.6424009 L81.6247741,16.4162174 L82.9494067,16.4162174 L84.2740393,16.4162174 L84.2740393,17.7430578 L84.2740393,19.0698981 L82.9676775,19.0973499 C81.9536484,19.1156512 81.6521803,19.0973499 81.6156387,18.9966931 Z" id="路径" fill="#262626" fill-rule="nonzero"></path>
                    <path d="M81.6247741,100.720906 C81.5973679,100.656852 81.5882325,96.3652095 81.5973679,91.1768063 L81.6247741,81.7516648 L91.1255872,81.7516648 L100.6264,81.7516648 L100.653807,91.2134088 C100.672077,98.7260702 100.653807,100.693454 100.562453,100.757508 C100.498505,100.794111 96.2140035,100.830713 91.052504,100.830713 C83.6254261,100.830713 81.6521803,100.803262 81.6247741,100.720906 Z M97.8857812,91.2683126 L97.8857812,84.4968516 L91.1255872,84.4968516 L84.3653933,84.4968516 L84.3379871,91.1768063 C84.3288517,94.8553567 84.3379871,97.9116648 84.3653933,97.9757191 C84.3927995,98.0672254 85.7996506,98.0855266 91.143858,98.0672254 L97.8857812,98.0397735 L97.8857812,91.2683126 Z" id="形状" fill="#262626" fill-rule="nonzero"></path>
                    <polygon id="路径" fill="#262626" fill-rule="nonzero" points="87.0603355 91.2683126 87.0603355 87.1962854 91.1255872 87.1962854 95.190839 87.1962854 95.190839 91.2683126 95.190839 95.3403398 91.1255872 95.3403398 87.0603355 95.3403398"></polygon>
                    <path d="M16.4163088,78.9881767 C16.3797672,78.9607248 16.352361,78.3384824 16.352361,77.6155832 L16.352361,76.2978935 L17.7043998,76.3253454 L19.0473032,76.3527973 L19.0747094,77.5789807 C19.0929802,78.4025368 19.065574,78.8417667 18.9924908,78.9241223 C18.9102722,79.0247792 18.5996687,79.052231 17.6769936,79.052231 C17.019245,79.052231 16.443715,79.0247792 16.4163088,78.9881767 Z" id="路径" fill="#262626" fill-rule="nonzero"></path>
                    <path d="M32.6955866,73.5435561 C32.6407742,73.3788448 32.659045,71.0911891 32.7229928,70.972231 C32.796076,70.8258211 32.933107,70.8166704 34.0567608,70.8349717 L35.3083102,70.8624236 L35.3357164,72.2167157 L35.3631226,73.5618573 L34.0293546,73.5618573 C33.2985228,73.5618573 32.704722,73.5527067 32.6955866,73.5435561 Z" id="路径" fill="#262626" fill-rule="nonzero"></path>
                    <polygon id="路径" fill="#262626" fill-rule="nonzero" points="43.5941155 69.4715289 43.6215217 68.1172367 44.9004773 68.1446886 46.1794329 68.1629898 46.2068391 69.4898301 46.2342453 70.8166704 44.9004773 70.8166704 43.5667093 70.8166704"></polygon>
                    <path d="M46.2251099,66.0857984 C46.2251099,64.9419706 46.2616515,63.9445527 46.2981931,63.8804983 C46.3621409,63.7981427 46.6910152,63.7706908 47.6502319,63.7889921 L48.9200521,63.8164439 L48.9657291,64.5942469 L49.0114061,65.3720498 L50.3543094,65.3995017 L51.6972128,65.4269536 L51.724619,64.6216988 L51.7520252,63.8164439 L53.0401162,63.7889921 C54.5383214,63.7615402 54.4469674,63.6974858 54.4469674,64.8047112 L54.4469674,65.4178029 L55.7716,65.4178029 L57.105368,65.4178029 L57.0779618,66.7720951 L57.0505556,68.1172367 L56.2283699,68.1446886 C55.7807354,68.1629898 55.1869346,68.1446886 54.9311435,68.1172367 L54.4469674,68.062333 L54.4469674,66.7354926 L54.4469674,65.4178029 L53.0766578,65.4178029 L51.7063482,65.4178029 L51.7063482,66.7354926 C51.7063482,67.7054587 51.678942,68.062333 51.5967235,68.0897848 C51.5327757,68.1080861 50.2994971,68.1355379 48.8561043,68.1446886 L46.2251099,68.1721404 L46.2251099,66.0857984 Z" id="路径" fill="#262626" fill-rule="nonzero"></path>
                    <path d="M63.7102602,48.9192299 C63.6919894,48.8551755 63.682854,48.2420838 63.6919894,47.5649377 L63.7193956,46.3387542 L65.7839953,46.3113024 C67.3735545,46.2930011 67.8668659,46.320453 67.9308137,46.4028086 C67.9764907,46.466863 68.0038969,47.0891053 67.9856261,47.7845527 L67.9490845,49.038188 L65.8570785,49.038188 C64.2218424,49.038188 63.7468018,49.0107361 63.7102602,48.9192299 Z" id="路径" fill="#262626" fill-rule="nonzero"></path>
                    <polygon id="路径" fill="#262626" fill-rule="nonzero" points="29.9641029 43.5935674 29.9641029 40.8941336 31.325277 40.8941336 32.6864512 40.8941336 32.6773158 43.5752661 32.659045 46.247248 31.3161417 46.2746999 29.9641029 46.3021518"></polygon>
                    <path d="M65.3820379,43.5752661 C65.3454963,43.5478143 65.3180901,42.3124802 65.3180901,40.8300793 L65.3180901,38.1397961 L66.6518581,38.167248 L67.9856261,38.1946999 L67.9856261,40.8209287 C67.9764907,42.2758777 67.9490845,43.4929105 67.9216783,43.5478143 C67.8577305,43.6484711 65.4825272,43.675923 65.3820379,43.5752661 Z" id="路径" fill="#262626" fill-rule="nonzero"></path>
                    <path d="M5.59999849,32.6951755 C5.50864452,32.658573 5.48123833,32.2925481 5.48123833,31.3225821 L5.48123833,29.9957418 L6.83327712,30.0231937 L8.17618051,30.0506455 L8.2035867,31.276829 C8.2127221,31.9539751 8.1944513,32.5396149 8.14877432,32.5853681 C8.06655574,32.6677237 5.76443564,32.7775311 5.59999849,32.6951755 Z" id="路径" fill="#262626" fill-rule="nonzero"></path>
                    <path d="M0.0639477805,19.0515968 C0.0274061916,19.024145 0,14.7416535 0,9.54409966 L0,0.0823556059 L0.210114136,0.0366024915 C0.319738903,0.00915062288 4.6042402,2.60208521e-18 9.72919803,0.00915062288 L19.0473032,0.0366024915 L19.0473032,9.55325028 L19.0473032,19.0698981 L9.58303168,19.0973499 C4.38499066,19.1065006 0.0913539721,19.0881993 0.0639477805,19.0515968 Z M16.306684,9.55325028 L16.306684,2.78178935 L9.54649009,2.78178935 L2.78629615,2.78178935 L2.75888996,9.46174405 C2.74975456,13.1402945 2.75888996,16.1966025 2.78629615,16.2606569 C2.81370234,16.3521631 4.22055351,16.3704643 9.56476088,16.3521631 L16.306684,16.3247112 L16.306684,9.55325028 Z" id="形状" fill="#262626" fill-rule="nonzero"></path>
                    <polygon id="路径" fill="#262626" fill-rule="nonzero" points="5.48123833 9.55325028 5.48123833 5.4812231 9.54649009 5.4812231 13.6117418 5.4812231 13.6117418 9.55325028 13.6117418 13.6252775 9.54649009 13.6252775 5.48123833 13.6252775"></polygon>
                    <path d="M21.778787,10.7611325 C21.7605162,10.6970781 21.7513808,10.1114383 21.7605162,9.45259343 L21.7879224,8.27216308 L23.1399611,8.24471121 L24.4828645,8.21725934 L24.4828645,9.55325028 L24.4828645,10.8800906 L23.1582319,10.8800906 C22.1533382,10.8800906 21.8153285,10.8526387 21.778787,10.7611325 Z" id="路径" fill="#262626" fill-rule="nonzero"></path>
                    <path d="M27.2691607,8.11660249 C27.2417545,8.05254813 27.2143483,7.4394564 27.2052129,6.76231031 L27.1778067,5.52697622 L25.8531741,5.4812231 L24.5285415,5.43546999 L24.5285415,2.73603624 L24.5285415,0.0366024915 L27.2234837,0.0366024915 L29.9184259,0.0366024915 L29.9458321,4.00797282 C29.9549675,6.86296716 29.9366967,8.01594564 29.8636135,8.09830125 C29.7174471,8.27216308 27.3331085,8.2813137 27.2691607,8.11660249 Z" id="路径" fill="#262626" fill-rule="nonzero"></path>
                    <path d="M32.6864512,5.37141563 C32.6499096,5.2799094 32.659045,3.5595923 32.6955866,2.85499434 C32.704722,2.76348811 33.0335963,2.73603624 34.0293546,2.73603624 L35.3448518,2.73603624 L35.372258,1.39089468 L35.3996642,0.0366024915 L36.7242968,0.0366024915 L38.0489294,0.0366024915 L38.0489294,1.36344281 L38.0489294,2.69028313 L36.706026,2.71773499 L35.3631226,2.74518686 L35.3357164,4.09032843 L35.3083102,5.43546999 L34.0202192,5.46292186 C33.0335963,5.4812231 32.7138574,5.45377123 32.6864512,5.37141563 Z" id="路径" fill="#262626" fill-rule="nonzero"></path>
                    <path d="M95.2273806,2.61707814 C95.2091098,2.55302378 95.1999744,1.93993205 95.2091098,1.26278596 L95.236516,0.0366024915 L97.7487502,0.00915062288 C99.1281952,2.60208521e-18 100.352338,0.00915062288 100.471099,0.0366024915 C100.672077,0.0823556059 100.681213,0.100656852 100.653807,1.39089468 L100.6264,2.69028313 L97.9497289,2.71773499 C95.812046,2.73603624 95.2639222,2.71773499 95.2273806,2.61707814 Z" id="路径" fill="#262626" fill-rule="nonzero"></path>
                    <g id="矩形">
                        <rect stroke-opacity="0.1" stroke="#3D3D3A" stroke-width="0.5" stroke-linejoin="square" x="37.7258735" y="37.7883333" width="25.3801997" height="25.4233333" rx="3.44820822"></rect>
                        <rect stroke="#FFFFFF" stroke-width="1.00831947" x="36.9717138" y="37.0341736" width="26.8885191" height="26.9316528" rx="3.44820822"></rect>
                    </g>
                    <g id="Group" transform="translate(51.256240, 50.415833) scale(1, -1) translate(-51.256240, -50.415833) translate(41.173045, 41.746667)" fill="#3D3D3A">
                        <path d="M0.885366674,17.3109165 L0.885366674,17.3109165 C0.425510084,17.3109165 0.0491163686,13.682478 0.0491163686,13.682478 C0.0491163686,13.3789494 0.425510084,13.1305645 0.885366674,13.1305645 C1.34522326,13.1305645 1.72152159,13.3789494 1.72152159,13.682478 C1.72152159,13.682478 1.34522326,17.3109165 0.885366674,17.3109165" id="Fill-4"></path>
                        <path d="M20.1492657,5.23752508 C20.1492657,5.42638522 19.9959802,5.5795305 19.8067341,5.5795305 C19.6175834,5.5795305 19.4641071,5.42638522 19.4641071,5.23752508 C19.4641071,5.04866494 19.6175834,4.89551966 19.8067341,4.89551966 C19.9959802,4.89551966 20.1492657,5.04866494 20.1492657,5.23752508 M11.9827812,9.71121506 C11.4033104,11.3560983 9.59803225,12.2203977 7.9506182,11.6417219 C6.6772132,11.1944767 5.8120609,10.0517919 5.83829209,8.77977172 C5.84277523,8.73177096 5.86175708,8.70548483 5.90639779,8.68453211 C6.23834156,8.55891107 6.5939411,8.46233811 7.02708957,8.36309844 C7.06743791,8.35205065 7.1239065,8.38290828 7.11827872,8.44290923 C7.00944313,9.30797057 7.51327274,10.1485553 8.37060338,10.449703 C8.52732281,10.5047514 8.68623612,10.5371329 8.84429096,10.5497045 C8.91707058,10.5554189 8.94540027,10.4793225 8.894941,10.4337979 C8.60945028,10.1768415 8.4902176,9.76493019 8.62566592,9.38025743 C8.80565957,8.86929695 9.3664347,8.6008165 9.87808596,8.78062887 C10.2438918,8.9091071 10.4848372,9.23187412 10.5268071,9.59226079 C10.5340565,9.65426177 10.6074084,9.67007155 10.641652,9.61102299 C10.6996468,9.51121189 10.7491522,9.40463877 10.7889282,9.29187507 C10.9656788,8.79015283 10.9226596,8.27719232 10.7033669,7.83566151 C10.6781849,7.77661296 10.7218718,7.73394561 10.7578323,7.72937411 C11.2026179,7.66184923 11.5520174,7.60594358 11.85897,7.54127589 C11.9348973,7.52718043 11.9643717,7.57432403 11.9792519,7.60803885 C12.2239173,8.27271606 12.2365083,8.99101316 11.9827812,9.71121506 M16.9602208,3.32073279 C18.1004668,2.69281807 19.1164246,1.04164903 18.9820255,0.278113118 C18.9593236,0.149539651 18.8941749,0.0720146119 18.7915394,0.0369664372 C18.5709112,-0.0382728509 18.3426522,0.139729971 18.3409352,0.140396648 C16.4717484,1.49832294 15.2167529,1.8899482 14.003632,2.22462017 C12.347347,2.68167503 7.97503705,3.14873006 7.1906768,3.32206614 C4.96283808,3.81455014 3.22347178,5.22038195 2.50034944,7.27289068 C2.02933267,8.6094833 2.14494068,10.1962704 2.15228541,11.5242914 C2.15963014,12.8403123 2.13015582,13.9223294 2.2714227,14.3722413 C2.27685971,14.3893845 2.28286904,14.4050038 2.28916452,14.4199564 C2.29660464,14.4381471 2.30538017,14.4554808 2.31530033,14.4724334 C2.31844807,14.4777668 2.32159581,14.4831002 2.32483894,14.4881479 C2.33275599,14.5003386 2.34105458,14.5121483 2.35030704,14.5234818 C2.36137183,14.5371963 2.37253201,14.5494822 2.38378757,14.5604348 C2.38788918,14.5644349 2.39199078,14.5684349 2.39637855,14.5721493 C2.40420021,14.579197 2.41211726,14.585959 2.41974815,14.5920543 C2.42156049,14.5926258 2.42365898,14.5931972 2.42547132,14.5938639 C2.45666259,14.6165309 2.49023851,14.6365312 2.52858374,14.6500553 C2.65468422,14.6942464 2.78727095,14.6714842 2.89000183,14.601864 C2.89248187,14.6003402 2.89543884,14.599483 2.89791888,14.5977687 C2.8984912,14.5972925 2.89906351,14.5966258 2.89973122,14.5960544 C2.94437193,14.5638634 2.98271716,14.5227199 3.01161916,14.4736715 C3.01209609,14.4730048 3.01257302,14.4725286 3.01304995,14.4719572 C3.26000467,14.144333 3.42731197,13.5422282 3.71843047,13.0484108 C4.34330509,11.9846797 5.46848001,11.9826796 6.80627065,12.5114499 C7.04177904,12.6046895 7.26612724,12.6818336 7.47902911,12.7457394 C7.50344796,12.7547871 7.5272945,12.7647873 7.55190412,12.7733588 C8.04323814,12.9460282 8.54477847,13.0251724 9.03725712,13.0209818 C9.039451,13.0210771 9.04183566,13.0211723 9.04402954,13.0212675 C9.04603265,13.0213628 9.04717728,13.0211723 9.04879885,13.0210771 C10.7684202,13.0016482 12.3746275,11.9604888 13.0467182,10.2914147 C13.3180918,9.70016726 13.9158767,7.80347052 14.1232462,7.30260544 C14.1841979,7.17041287 14.2337034,7.1481268 14.3482621,7.11203099 C14.7221758,7.01355324 14.9752352,6.92259942 15.0869324,6.88859888 C15.5049145,6.76135876 17.2918784,5.99725141 18.3160395,4.06750653 C18.5293229,3.66588111 18.7933517,2.98958468 18.9216461,2.34528875 C18.9332832,2.28690687 18.8710914,2.25776355 18.8279769,2.30062137 C18.3396952,2.78748624 17.6826755,3.2313028 16.9716672,3.37711463 C16.9118601,3.3893053 16.9026076,3.35244757 16.9602208,3.32073279" id="Fill-6"></path>
                    </g>
                </g>
            </g>
        </g>
    </g>
</svg>